<mxfile host="app.diagrams.net" agent="Mozilla/5.0 (Windows NT 10.0; Win64; x64) AppleWebKit/537.36 (KHTML, like Gecko) Chrome/130.0.0.0 Safari/537.36" version="24.8.4">
  <diagram name="Page-1" id="r5WR_okO5_bGG2yNE-Y3">
    <mxGraphModel dx="2349" dy="728" grid="1" gridSize="10" guides="1" tooltips="1" connect="1" arrows="1" fold="1" page="1" pageScale="1" pageWidth="850" pageHeight="1100" math="0" shadow="0">
      <root>
        <mxCell id="0" />
        <mxCell id="1" parent="0" />
        <mxCell id="9iCOq9ahbUTK9QBbnLyf-14" value="" style="rounded=1;whiteSpace=wrap;html=1;" vertex="1" parent="1">
          <mxGeometry x="210" y="180" width="565" height="320" as="geometry" />
        </mxCell>
        <mxCell id="9iCOq9ahbUTK9QBbnLyf-17" style="edgeStyle=orthogonalEdgeStyle;rounded=0;orthogonalLoop=1;jettySize=auto;html=1;exitX=1;exitY=0.5;exitDx=0;exitDy=0;exitPerimeter=0;entryX=0;entryY=0.5;entryDx=0;entryDy=0;" edge="1" parent="1" source="9iCOq9ahbUTK9QBbnLyf-9" target="9iCOq9ahbUTK9QBbnLyf-16">
          <mxGeometry relative="1" as="geometry" />
        </mxCell>
        <mxCell id="9iCOq9ahbUTK9QBbnLyf-9" value="" style="fontColor=#0066CC;verticalAlign=top;verticalLabelPosition=bottom;labelPosition=center;align=center;html=1;outlineConnect=0;fillColor=#CCCCCC;strokeColor=#6881B3;gradientColor=none;gradientDirection=north;strokeWidth=2;shape=mxgraph.networks.pc;" vertex="1" parent="1">
          <mxGeometry x="10" y="305" width="100" height="70" as="geometry" />
        </mxCell>
        <mxCell id="9iCOq9ahbUTK9QBbnLyf-19" style="edgeStyle=orthogonalEdgeStyle;rounded=0;orthogonalLoop=1;jettySize=auto;html=1;exitX=1;exitY=0.25;exitDx=0;exitDy=0;entryX=0;entryY=0.5;entryDx=0;entryDy=0;" edge="1" parent="1" source="9iCOq9ahbUTK9QBbnLyf-1" target="9iCOq9ahbUTK9QBbnLyf-6">
          <mxGeometry relative="1" as="geometry" />
        </mxCell>
        <mxCell id="9iCOq9ahbUTK9QBbnLyf-21" style="edgeStyle=orthogonalEdgeStyle;rounded=0;orthogonalLoop=1;jettySize=auto;html=1;exitX=1;exitY=0.5;exitDx=0;exitDy=0;entryX=0;entryY=0.5;entryDx=0;entryDy=0;" edge="1" parent="1" source="9iCOq9ahbUTK9QBbnLyf-1" target="9iCOq9ahbUTK9QBbnLyf-10">
          <mxGeometry relative="1" as="geometry" />
        </mxCell>
        <mxCell id="9iCOq9ahbUTK9QBbnLyf-1" value="" style="shape=image;verticalLabelPosition=bottom;verticalAlign=top;imageAspect=0;aspect=fixed;image=data:image/svg+xml,PHN2ZyB4bWxuczpkYz0iaHR0cDovL3B1cmwub3JnL2RjL2VsZW1lbnRzLzEuMS8iIHhtbG5zOmNjPSJodHRwOi8vY3JlYXRpdmVjb21tb25zLm9yZy9ucyMiIHhtbG5zOnJkZj0iaHR0cDovL3d3dy53My5vcmcvMTk5OS8wMi8yMi1yZGYtc3ludGF4LW5zIyIgeG1sbnM6c3ZnPSJodHRwOi8vd3d3LnczLm9yZy8yMDAwL3N2ZyIgeG1sbnM9Imh0dHA6Ly93d3cudzMub3JnLzIwMDAvc3ZnIiB4bWxuczpzb2RpcG9kaT0iaHR0cDovL3NvZGlwb2RpLnNvdXJjZWZvcmdlLm5ldC9EVEQvc29kaXBvZGktMC5kdGQiIHhtbG5zOmlua3NjYXBlPSJodHRwOi8vd3d3Lmlua3NjYXBlLm9yZy9uYW1lc3BhY2VzL2lua3NjYXBlIiB3aWR0aD0iMTguMDM1MzM0bW0iIGhlaWdodD0iMTcuNTAwMzc4bW0iIHZpZXdCb3g9IjAgMCAxOC4wMzUzMzQgMTcuNTAwMzc4IiB2ZXJzaW9uPSIxLjEiIGlkPSJzdmcxMzgyNiIgaW5rc2NhcGU6dmVyc2lvbj0iMC45MSByMTM3MjUiIHNvZGlwb2RpOmRvY25hbWU9ImluZy5zdmciPiYjeGE7ICA8ZGVmcyBpZD0iZGVmczEzODIwIi8+JiN4YTsgIDxzb2RpcG9kaTpuYW1lZHZpZXcgaWQ9ImJhc2UiIHBhZ2Vjb2xvcj0iI2ZmZmZmZiIgYm9yZGVyY29sb3I9IiM2NjY2NjYiIGJvcmRlcm9wYWNpdHk9IjEuMCIgaW5rc2NhcGU6cGFnZW9wYWNpdHk9IjAuMCIgaW5rc2NhcGU6cGFnZXNoYWRvdz0iMiIgaW5rc2NhcGU6em9vbT0iOCIgaW5rc2NhcGU6Y3g9IjE2Ljg0NzQ5NiIgaW5rc2NhcGU6Y3k9IjI4Ljc1MjIzOSIgaW5rc2NhcGU6ZG9jdW1lbnQtdW5pdHM9Im1tIiBpbmtzY2FwZTpjdXJyZW50LWxheWVyPSJsYXllcjEiIHNob3dncmlkPSJmYWxzZSIgaW5rc2NhcGU6d2luZG93LXdpZHRoPSIxNDQwIiBpbmtzY2FwZTp3aW5kb3ctaGVpZ2h0PSI3NzUiIGlua3NjYXBlOndpbmRvdy14PSIwIiBpbmtzY2FwZTp3aW5kb3cteT0iMSIgaW5rc2NhcGU6d2luZG93LW1heGltaXplZD0iMSIgZml0LW1hcmdpbi10b3A9IjAiIGZpdC1tYXJnaW4tbGVmdD0iMCIgZml0LW1hcmdpbi1yaWdodD0iMCIgZml0LW1hcmdpbi1ib3R0b209IjAiLz4mI3hhOyAgPG1ldGFkYXRhIGlkPSJtZXRhZGF0YTEzODIzIj4mI3hhOyAgICA8cmRmOlJERj4mI3hhOyAgICAgIDxjYzpXb3JrIHJkZjphYm91dD0iIj4mI3hhOyAgICAgICAgPGRjOmZvcm1hdD5pbWFnZS9zdmcreG1sPC9kYzpmb3JtYXQ+JiN4YTsgICAgICAgIDxkYzp0eXBlIHJkZjpyZXNvdXJjZT0iaHR0cDovL3B1cmwub3JnL2RjL2RjbWl0eXBlL1N0aWxsSW1hZ2UiLz4mI3hhOyAgICAgICAgPGRjOnRpdGxlLz4mI3hhOyAgICAgIDwvY2M6V29yaz4mI3hhOyAgICA8L3JkZjpSREY+JiN4YTsgIDwvbWV0YWRhdGE+JiN4YTsgIDxnIGlua3NjYXBlOmxhYmVsPSJDYWxxdWUgMSIgaW5rc2NhcGU6Z3JvdXBtb2RlPSJsYXllciIgaWQ9ImxheWVyMSIgdHJhbnNmb3JtPSJ0cmFuc2xhdGUoLTAuOTkyNjI2MzgsLTEuMTc0MTgxKSI+JiN4YTsgICAgPGcgaWQ9Imc3MCIgdHJhbnNmb3JtPSJtYXRyaXgoMS4wMTQ4ODg3LDAsMCwxLjAxNDg4ODcsMTYuOTAyMTQ2LC0yLjY5ODcyNikiPiYjeGE7ICAgICAgPHBhdGggaW5rc2NhcGU6ZXhwb3J0LXlkcGk9IjI1MC41NSIgaW5rc2NhcGU6ZXhwb3J0LXhkcGk9IjI1MC41NSIgaW5rc2NhcGU6ZXhwb3J0LWZpbGVuYW1lPSJuZXcucG5nIiBpbmtzY2FwZTpjb25uZWN0b3ItY3VydmF0dXJlPSIwIiBpZD0icGF0aDMwNTUiIGQ9Im0gLTYuODQ5MjAxNSw0LjI3MjQ2NjggYSAxLjExOTEyNTUsMS4xMDk5NjcxIDAgMCAwIC0wLjQyODg4MTgsMC4xMDg1MzAzIGwgLTUuODUyNDAzNywyLjc5NjMzOTQgYSAxLjExOTEyNTUsMS4xMDk5NjcxIDAgMCAwIC0wLjYwNTUyNCwwLjc1Mjk3NTkgbCAtMS40NDM4MjgsNi4yODEyODQ2IGEgMS4xMTkxMjU1LDEuMTA5OTY3MSAwIDAgMCAwLjE1MTk0MywwLjg1MTAyOCAxLjExOTEyNTUsMS4xMDk5NjcxIDAgMCAwIDAuMDYzNjIsMC4wODgzMiBsIDQuMDUwOCw1LjAzNjU1NSBhIDEuMTE5MTI1NSwxLjEwOTk2NzEgMCAwIDAgMC44NzQ5NzksMC40MTc2NTQgbCA2LjQ5NjEwMTEsLTAuMDAxNSBhIDEuMTE5MTI1NSwxLjEwOTk2NzEgMCAwIDAgMC44NzQ5Nzg4LC0wLjQxNjkwNiBMIDEuMzgxODg3MiwxNS4xNDk0NTMgQSAxLjExOTEyNTUsMS4xMDk5NjcxIDAgMCAwIDEuNTk4MTk4NiwxNC4yMTAxMDQgTCAwLjE1MjEyNjU3LDcuOTI4ODE1NCBBIDEuMTE5MTI1NSwxLjEwOTk2NzEgMCAwIDAgLTAuNDUzMzk3OTQsNy4xNzU4Mzk2IEwgLTYuMzA2NTQ5Niw0LjM4MDk5NzEgQSAxLjExOTEyNTUsMS4xMDk5NjcxIDAgMCAwIC02Ljg0OTIwMTUsNC4yNzI0NjY4IFoiIHN0eWxlPSJmaWxsOiMzMjZjZTU7ZmlsbC1vcGFjaXR5OjE7c3Ryb2tlOm5vbmU7c3Ryb2tlLXdpZHRoOjA7c3Ryb2tlLW1pdGVybGltaXQ6NDtzdHJva2UtZGFzaGFycmF5Om5vbmU7c3Ryb2tlLW9wYWNpdHk6MSIvPiYjeGE7ICAgICAgPHBhdGggaWQ9InBhdGgzMDU0LTItOSIgZD0iTSAtNi44NTIzNDM1LDMuODE3NjM3MiBBIDEuMTgxNDMwNCwxLjE3MTc2MiAwIDAgMCAtNy4zMDQ0Mjg0LDMuOTMyOTA0IGwgLTYuMTc4NzQyNiwyLjk1MTI3NTggYSAxLjE4MTQzMDQsMS4xNzE3NjIgMCAwIDAgLTAuNjM5MjA2LDAuNzk0ODkxIGwgLTEuNTIzOTE1LDYuNjMwODI4MiBhIDEuMTgxNDMwNCwxLjE3MTc2MiAwIDAgMCAwLjE2MDE3NSwwLjg5ODkzIDEuMTgxNDMwNCwxLjE3MTc2MiAwIDAgMCAwLjA2NzM2LDAuMDkyODEgbCA0LjI3NjA5NCw1LjMxNzIzNiBhIDEuMTgxNDMwNCwxLjE3MTc2MiAwIDAgMCAwLjkyMzYzLDAuNDQwODU4IGwgNi44NTc2MTg4LC0wLjAwMTUgYSAxLjE4MTQzMDQsMS4xNzE3NjIgMCAwIDAgMC45MjM2MzA4LC0wLjQ0MDExIGwgNC4yNzQ1OTY2LC01LjMxNzk4NSBhIDEuMTgxNDMwNCwxLjE3MTc2MiAwIDAgMCAwLjIyODI4OCwtMC45OTA5OTMgTCAwLjUzODk0NDM5LDcuNjc3NTczOCBBIDEuMTgxNDMwNCwxLjE3MTc2MiAwIDAgMCAtMC4xMDAyNjEwMSw2Ljg4MzQzMTMgTCAtNi4yNzkwMDM3LDMuOTMyMTU1NSBBIDEuMTgxNDMwNCwxLjE3MTc2MiAwIDAgMCAtNi44NTIzNDM1LDMuODE3NjM3MiBaIG0gMC4wMDI5OSwwLjQ1NTA3ODkgYSAxLjExOTEyNTUsMS4xMDk5NjcxIDAgMCAxIDAuNTQyNjUxNywwLjEwODUzMDMgbCA1Ljg1MzE1MTY5LDIuNzk0ODQyNSBBIDEuMTE5MTI1NSwxLjEwOTk2NzEgMCAwIDEgMC4xNTE5NzgxMSw3LjkyOTA2NDggTCAxLjU5ODA1MSwxNC4yMTAzNSBhIDEuMTE5MTI1NSwxLjEwOTk2NzEgMCAwIDEgLTAuMjE2MzEyMywwLjkzOTM0OCBsIC00LjA0OTMwMzIsNS4wMzczMDQgYSAxLjExOTEyNTUsMS4xMDk5NjcxIDAgMCAxIC0wLjg3NDk3ODksMC40MTY5MDYgbCAtNi40OTYxMDA2LDAuMDAxNSBhIDEuMTE5MTI1NSwxLjEwOTk2NzEgMCAwIDEgLTAuODc0OTc5LC0wLjQxNzY1MiBsIC00LjA1MDgsLTUuMDM2NTU0IGEgMS4xMTkxMjU1LDEuMTA5OTY3MSAwIDAgMSAtMC4wNjM2MiwtMC4wODgzMiAxLjExOTEyNTUsMS4xMDk5NjcxIDAgMCAxIC0wLjE1MTk0MiwtMC44NTEwMjggbCAxLjQ0MzgyNywtNi4yODEyODUzIGEgMS4xMTkxMjU1LDEuMTA5OTY3MSAwIDAgMSAwLjYwNTUyNCwtMC43NTI5NzU4IGwgNS44NTI0MDM2LC0yLjc5NjMzOTUgYSAxLjExOTEyNTUsMS4xMDk5NjcxIDAgMCAxIDAuNDI4ODgxOSwtMC4xMDg1MzAzIHoiIHN0eWxlPSJjb2xvcjojMDAwMDAwO2ZvbnQtc3R5bGU6bm9ybWFsO2ZvbnQtdmFyaWFudDpub3JtYWw7Zm9udC13ZWlnaHQ6bm9ybWFsO2ZvbnQtc3RyZXRjaDpub3JtYWw7Zm9udC1zaXplOm1lZGl1bTtsaW5lLWhlaWdodDpub3JtYWw7Zm9udC1mYW1pbHk6U2FuczstaW5rc2NhcGUtZm9udC1zcGVjaWZpY2F0aW9uOlNhbnM7dGV4dC1pbmRlbnQ6MDt0ZXh0LWFsaWduOnN0YXJ0O3RleHQtZGVjb3JhdGlvbjpub25lO3RleHQtZGVjb3JhdGlvbi1saW5lOm5vbmU7bGV0dGVyLXNwYWNpbmc6bm9ybWFsO3dvcmQtc3BhY2luZzpub3JtYWw7dGV4dC10cmFuc2Zvcm06bm9uZTt3cml0aW5nLW1vZGU6bHItdGI7ZGlyZWN0aW9uOmx0cjtiYXNlbGluZS1zaGlmdDpiYXNlbGluZTt0ZXh0LWFuY2hvcjpzdGFydDtkaXNwbGF5OmlubGluZTtvdmVyZmxvdzp2aXNpYmxlO3Zpc2liaWxpdHk6dmlzaWJsZTtmaWxsOiNmZmZmZmY7ZmlsbC1vcGFjaXR5OjE7ZmlsbC1ydWxlOm5vbnplcm87c3Ryb2tlOm5vbmU7c3Ryb2tlLXdpZHRoOjA7c3Ryb2tlLW1pdGVybGltaXQ6NDtzdHJva2UtZGFzaGFycmF5Om5vbmU7bWFya2VyOm5vbmU7ZW5hYmxlLWJhY2tncm91bmQ6YWNjdW11bGF0ZSIgaW5rc2NhcGU6Y29ubmVjdG9yLWN1cnZhdHVyZT0iMCIvPiYjeGE7ICAgIDwvZz4mI3hhOyAgICA8dGV4dCBpZD0idGV4dDIwNjYiIHk9IjE2LjgxMTc3NSIgeD0iMTAuMDA4OTE1IiBzdHlsZT0iZm9udC1zdHlsZTpub3JtYWw7Zm9udC13ZWlnaHQ6bm9ybWFsO2ZvbnQtc2l6ZToxMC41ODMzMzMwMnB4O2xpbmUtaGVpZ2h0OjYuNjE0NTgzNDlweDtmb250LWZhbWlseTpTYW5zO2xldHRlci1zcGFjaW5nOjBweDt3b3JkLXNwYWNpbmc6MHB4O2ZpbGw6I2ZmZmZmZjtmaWxsLW9wYWNpdHk6MTtzdHJva2U6bm9uZTtzdHJva2Utd2lkdGg6MC4yNjQ1ODMzMnB4O3N0cm9rZS1saW5lY2FwOmJ1dHQ7c3Ryb2tlLWxpbmVqb2luOm1pdGVyO3N0cm9rZS1vcGFjaXR5OjEiIHhtbDpzcGFjZT0icHJlc2VydmUiPjx0c3BhbiBzdHlsZT0iZm9udC1zdHlsZTpub3JtYWw7Zm9udC12YXJpYW50Om5vcm1hbDtmb250LXdlaWdodDpub3JtYWw7Zm9udC1zdHJldGNoOm5vcm1hbDtmb250LXNpemU6Mi44MjIyMjIyM3B4O2ZvbnQtZmFtaWx5OkFyaWFsOy1pbmtzY2FwZS1mb250LXNwZWNpZmljYXRpb246J0FyaWFsLCBOb3JtYWwnO3RleHQtYWxpZ246Y2VudGVyO3dyaXRpbmctbW9kZTpsci10Yjt0ZXh0LWFuY2hvcjptaWRkbGU7ZmlsbDojZmZmZmZmO2ZpbGwtb3BhY2l0eToxO3N0cm9rZS13aWR0aDowLjI2NDU4MzMycHgiIHk9IjE2LjgxMTc3NSIgeD0iMTAuMDA4OTE1IiBpZD0idHNwYW4yMDY0IiBzb2RpcG9kaTpyb2xlPSJsaW5lIj5pbmc8L3RzcGFuPjwvdGV4dD4mI3hhOyAgICA8cGF0aCBpZD0icGF0aDc3MDkiIHBvaW50ZXItZXZlbnRzPSJub25lIiBkPSJtIDEyLjc1Nzk5LDEzLjcxNjI1NiAtMi4yNzA3MDEsMCAtNC45MjA5MDA5LC02LjE1NTg2MTQgLTEuNDIzNjYsMCAwLC0yLjAxNDkwNjkgMi4zMTQ3MywwIDQuOTIzMDExOSw2LjE1NTg1MzMgMS4zNzc1MiwwIDAsLTEuNTkzNDc0IDMuMTE5ODY5LDIuNTk5ODgyIC0zLjExOTg2OSwyLjYwMTk4MyB6IG0gLTIuNDc2MTYsLTQuNzU1Mjc0OCAxLjA5ODY0LC0xLjM3NTQyNTYgMS4zNzc1MiwwIDAsMS41OTM0NzUgMy4xMTk4NjksLTIuNTk5ODgyOSAtMy4xMTk4NjksLTIuNjAxOTgzIDAsMS41OTM0ODMgLTIuMjcwNzAxLDAgLTEuNDU3MTkwNCwxLjgyNDExMDIgeiBtIC0zLjU5NzkyMTksMS4zNjQ5NDI4IC0xLjExNzUyLDEuNDAwNTc4IC0xLjQyMzY2LDAgMCwyLjAxNDkxNSAyLjMxNDczLDAgMS40NzgxNjk5LC0xLjg0OTI3OCB6IiBpbmtzY2FwZTpjb25uZWN0b3ItY3VydmF0dXJlPSIwIiBzdHlsZT0iZmlsbDojZmZmZmZmO2ZpbGwtb3BhY2l0eToxO3N0cm9rZTpub25lO3N0cm9rZS13aWR0aDowLjIwOTY2ODE3Ii8+JiN4YTsgIDwvZz4mI3hhOzwvc3ZnPg==;" vertex="1" parent="1">
          <mxGeometry x="330" y="300" width="80" height="80" as="geometry" />
        </mxCell>
        <mxCell id="9iCOq9ahbUTK9QBbnLyf-20" style="edgeStyle=orthogonalEdgeStyle;rounded=0;orthogonalLoop=1;jettySize=auto;html=1;exitX=1;exitY=0.5;exitDx=0;exitDy=0;" edge="1" parent="1" source="9iCOq9ahbUTK9QBbnLyf-6" target="9iCOq9ahbUTK9QBbnLyf-7">
          <mxGeometry relative="1" as="geometry" />
        </mxCell>
        <mxCell id="9iCOq9ahbUTK9QBbnLyf-6" value="service-voiture" style="shape=image;verticalLabelPosition=bottom;verticalAlign=top;imageAspect=0;aspect=fixed;image=data:image/svg+xml,PHN2ZyB4bWxuczpkYz0iaHR0cDovL3B1cmwub3JnL2RjL2VsZW1lbnRzLzEuMS8iIHhtbG5zOmNjPSJodHRwOi8vY3JlYXRpdmVjb21tb25zLm9yZy9ucyMiIHhtbG5zOnJkZj0iaHR0cDovL3d3dy53My5vcmcvMTk5OS8wMi8yMi1yZGYtc3ludGF4LW5zIyIgeG1sbnM6c3ZnPSJodHRwOi8vd3d3LnczLm9yZy8yMDAwL3N2ZyIgeG1sbnM9Imh0dHA6Ly93d3cudzMub3JnLzIwMDAvc3ZnIiB4bWxuczpzb2RpcG9kaT0iaHR0cDovL3NvZGlwb2RpLnNvdXJjZWZvcmdlLm5ldC9EVEQvc29kaXBvZGktMC5kdGQiIHhtbG5zOmlua3NjYXBlPSJodHRwOi8vd3d3Lmlua3NjYXBlLm9yZy9uYW1lc3BhY2VzL2lua3NjYXBlIiB3aWR0aD0iMTguMDM1MzM0bW0iIGhlaWdodD0iMTcuNTAwMzc4bW0iIHZpZXdCb3g9IjAgMCAxOC4wMzUzMzQgMTcuNTAwMzc4IiB2ZXJzaW9uPSIxLjEiIGlkPSJzdmcxMzgyNiIgaW5rc2NhcGU6dmVyc2lvbj0iMC45MSByMTM3MjUiIHNvZGlwb2RpOmRvY25hbWU9InN2Yy5zdmciPiYjeGE7ICA8ZGVmcyBpZD0iZGVmczEzODIwIi8+JiN4YTsgIDxzb2RpcG9kaTpuYW1lZHZpZXcgaWQ9ImJhc2UiIHBhZ2Vjb2xvcj0iI2ZmZmZmZiIgYm9yZGVyY29sb3I9IiM2NjY2NjYiIGJvcmRlcm9wYWNpdHk9IjEuMCIgaW5rc2NhcGU6cGFnZW9wYWNpdHk9IjAuMCIgaW5rc2NhcGU6cGFnZXNoYWRvdz0iMiIgaW5rc2NhcGU6em9vbT0iOCIgaW5rc2NhcGU6Y3g9IjE2Ljg0NzQ5NiIgaW5rc2NhcGU6Y3k9IjI4Ljc1MjIzOSIgaW5rc2NhcGU6ZG9jdW1lbnQtdW5pdHM9Im1tIiBpbmtzY2FwZTpjdXJyZW50LWxheWVyPSJsYXllcjEiIHNob3dncmlkPSJmYWxzZSIgaW5rc2NhcGU6d2luZG93LXdpZHRoPSIxNDQwIiBpbmtzY2FwZTp3aW5kb3ctaGVpZ2h0PSI3NzUiIGlua3NjYXBlOndpbmRvdy14PSIwIiBpbmtzY2FwZTp3aW5kb3cteT0iMSIgaW5rc2NhcGU6d2luZG93LW1heGltaXplZD0iMSIgZml0LW1hcmdpbi10b3A9IjAiIGZpdC1tYXJnaW4tbGVmdD0iMCIgZml0LW1hcmdpbi1yaWdodD0iMCIgZml0LW1hcmdpbi1ib3R0b209IjAiLz4mI3hhOyAgPG1ldGFkYXRhIGlkPSJtZXRhZGF0YTEzODIzIj4mI3hhOyAgICA8cmRmOlJERj4mI3hhOyAgICAgIDxjYzpXb3JrIHJkZjphYm91dD0iIj4mI3hhOyAgICAgICAgPGRjOmZvcm1hdD5pbWFnZS9zdmcreG1sPC9kYzpmb3JtYXQ+JiN4YTsgICAgICAgIDxkYzp0eXBlIHJkZjpyZXNvdXJjZT0iaHR0cDovL3B1cmwub3JnL2RjL2RjbWl0eXBlL1N0aWxsSW1hZ2UiLz4mI3hhOyAgICAgICAgPGRjOnRpdGxlLz4mI3hhOyAgICAgIDwvY2M6V29yaz4mI3hhOyAgICA8L3JkZjpSREY+JiN4YTsgIDwvbWV0YWRhdGE+JiN4YTsgIDxnIGlua3NjYXBlOmxhYmVsPSJDYWxxdWUgMSIgaW5rc2NhcGU6Z3JvdXBtb2RlPSJsYXllciIgaWQ9ImxheWVyMSIgdHJhbnNmb3JtPSJ0cmFuc2xhdGUoLTAuOTkyNjI2MzgsLTEuMTc0MTgxKSI+JiN4YTsgICAgPGcgaWQ9Imc3MCIgdHJhbnNmb3JtPSJtYXRyaXgoMS4wMTQ4ODg3LDAsMCwxLjAxNDg4ODcsMTYuOTAyMTQ2LC0yLjY5ODcyNikiPiYjeGE7ICAgICAgPHBhdGggaW5rc2NhcGU6ZXhwb3J0LXlkcGk9IjI1MC41NSIgaW5rc2NhcGU6ZXhwb3J0LXhkcGk9IjI1MC41NSIgaW5rc2NhcGU6ZXhwb3J0LWZpbGVuYW1lPSJuZXcucG5nIiBpbmtzY2FwZTpjb25uZWN0b3ItY3VydmF0dXJlPSIwIiBpZD0icGF0aDMwNTUiIGQ9Im0gLTYuODQ5MjAxNSw0LjI3MjQ2NjggYSAxLjExOTEyNTUsMS4xMDk5NjcxIDAgMCAwIC0wLjQyODg4MTgsMC4xMDg1MzAzIGwgLTUuODUyNDAzNywyLjc5NjMzOTQgYSAxLjExOTEyNTUsMS4xMDk5NjcxIDAgMCAwIC0wLjYwNTUyNCwwLjc1Mjk3NTkgbCAtMS40NDM4MjgsNi4yODEyODQ2IGEgMS4xMTkxMjU1LDEuMTA5OTY3MSAwIDAgMCAwLjE1MTk0MywwLjg1MTAyOCAxLjExOTEyNTUsMS4xMDk5NjcxIDAgMCAwIDAuMDYzNjIsMC4wODgzMiBsIDQuMDUwOCw1LjAzNjU1NSBhIDEuMTE5MTI1NSwxLjEwOTk2NzEgMCAwIDAgMC44NzQ5NzksMC40MTc2NTQgbCA2LjQ5NjEwMTEsLTAuMDAxNSBhIDEuMTE5MTI1NSwxLjEwOTk2NzEgMCAwIDAgMC44NzQ5Nzg4LC0wLjQxNjkwNiBMIDEuMzgxODg3MiwxNS4xNDk0NTMgQSAxLjExOTEyNTUsMS4xMDk5NjcxIDAgMCAwIDEuNTk4MTk4NiwxNC4yMTAxMDQgTCAwLjE1MjEyNjU3LDcuOTI4ODE1NCBBIDEuMTE5MTI1NSwxLjEwOTk2NzEgMCAwIDAgLTAuNDUzMzk3OTQsNy4xNzU4Mzk2IEwgLTYuMzA2NTQ5Niw0LjM4MDk5NzEgQSAxLjExOTEyNTUsMS4xMDk5NjcxIDAgMCAwIC02Ljg0OTIwMTUsNC4yNzI0NjY4IFoiIHN0eWxlPSJmaWxsOiMzMjZjZTU7ZmlsbC1vcGFjaXR5OjE7c3Ryb2tlOm5vbmU7c3Ryb2tlLXdpZHRoOjA7c3Ryb2tlLW1pdGVybGltaXQ6NDtzdHJva2UtZGFzaGFycmF5Om5vbmU7c3Ryb2tlLW9wYWNpdHk6MSIvPiYjeGE7ICAgICAgPHBhdGggaWQ9InBhdGgzMDU0LTItOSIgZD0iTSAtNi44NTIzNDM1LDMuODE3NjM3MiBBIDEuMTgxNDMwNCwxLjE3MTc2MiAwIDAgMCAtNy4zMDQ0Mjg0LDMuOTMyOTA0IGwgLTYuMTc4NzQyNiwyLjk1MTI3NTggYSAxLjE4MTQzMDQsMS4xNzE3NjIgMCAwIDAgLTAuNjM5MjA2LDAuNzk0ODkxIGwgLTEuNTIzOTE1LDYuNjMwODI4MiBhIDEuMTgxNDMwNCwxLjE3MTc2MiAwIDAgMCAwLjE2MDE3NSwwLjg5ODkzIDEuMTgxNDMwNCwxLjE3MTc2MiAwIDAgMCAwLjA2NzM2LDAuMDkyODEgbCA0LjI3NjA5NCw1LjMxNzIzNiBhIDEuMTgxNDMwNCwxLjE3MTc2MiAwIDAgMCAwLjkyMzYzLDAuNDQwODU4IGwgNi44NTc2MTg4LC0wLjAwMTUgYSAxLjE4MTQzMDQsMS4xNzE3NjIgMCAwIDAgMC45MjM2MzA4LC0wLjQ0MDExIGwgNC4yNzQ1OTY2LC01LjMxNzk4NSBhIDEuMTgxNDMwNCwxLjE3MTc2MiAwIDAgMCAwLjIyODI4OCwtMC45OTA5OTMgTCAwLjUzODk0NDM5LDcuNjc3NTczOCBBIDEuMTgxNDMwNCwxLjE3MTc2MiAwIDAgMCAtMC4xMDAyNjEwMSw2Ljg4MzQzMTMgTCAtNi4yNzkwMDM3LDMuOTMyMTU1NSBBIDEuMTgxNDMwNCwxLjE3MTc2MiAwIDAgMCAtNi44NTIzNDM1LDMuODE3NjM3MiBaIG0gMC4wMDI5OSwwLjQ1NTA3ODkgYSAxLjExOTEyNTUsMS4xMDk5NjcxIDAgMCAxIDAuNTQyNjUxNywwLjEwODUzMDMgbCA1Ljg1MzE1MTY5LDIuNzk0ODQyNSBBIDEuMTE5MTI1NSwxLjEwOTk2NzEgMCAwIDEgMC4xNTE5NzgxMSw3LjkyOTA2NDggTCAxLjU5ODA1MSwxNC4yMTAzNSBhIDEuMTE5MTI1NSwxLjEwOTk2NzEgMCAwIDEgLTAuMjE2MzEyMywwLjkzOTM0OCBsIC00LjA0OTMwMzIsNS4wMzczMDQgYSAxLjExOTEyNTUsMS4xMDk5NjcxIDAgMCAxIC0wLjg3NDk3ODksMC40MTY5MDYgbCAtNi40OTYxMDA2LDAuMDAxNSBhIDEuMTE5MTI1NSwxLjEwOTk2NzEgMCAwIDEgLTAuODc0OTc5LC0wLjQxNzY1MiBsIC00LjA1MDgsLTUuMDM2NTU0IGEgMS4xMTkxMjU1LDEuMTA5OTY3MSAwIDAgMSAtMC4wNjM2MiwtMC4wODgzMiAxLjExOTEyNTUsMS4xMDk5NjcxIDAgMCAxIC0wLjE1MTk0MiwtMC44NTEwMjggbCAxLjQ0MzgyNywtNi4yODEyODUzIGEgMS4xMTkxMjU1LDEuMTA5OTY3MSAwIDAgMSAwLjYwNTUyNCwtMC43NTI5NzU4IGwgNS44NTI0MDM2LC0yLjc5NjMzOTUgYSAxLjExOTEyNTUsMS4xMDk5NjcxIDAgMCAxIDAuNDI4ODgxOSwtMC4xMDg1MzAzIHoiIHN0eWxlPSJjb2xvcjojMDAwMDAwO2ZvbnQtc3R5bGU6bm9ybWFsO2ZvbnQtdmFyaWFudDpub3JtYWw7Zm9udC13ZWlnaHQ6bm9ybWFsO2ZvbnQtc3RyZXRjaDpub3JtYWw7Zm9udC1zaXplOm1lZGl1bTtsaW5lLWhlaWdodDpub3JtYWw7Zm9udC1mYW1pbHk6U2FuczstaW5rc2NhcGUtZm9udC1zcGVjaWZpY2F0aW9uOlNhbnM7dGV4dC1pbmRlbnQ6MDt0ZXh0LWFsaWduOnN0YXJ0O3RleHQtZGVjb3JhdGlvbjpub25lO3RleHQtZGVjb3JhdGlvbi1saW5lOm5vbmU7bGV0dGVyLXNwYWNpbmc6bm9ybWFsO3dvcmQtc3BhY2luZzpub3JtYWw7dGV4dC10cmFuc2Zvcm06bm9uZTt3cml0aW5nLW1vZGU6bHItdGI7ZGlyZWN0aW9uOmx0cjtiYXNlbGluZS1zaGlmdDpiYXNlbGluZTt0ZXh0LWFuY2hvcjpzdGFydDtkaXNwbGF5OmlubGluZTtvdmVyZmxvdzp2aXNpYmxlO3Zpc2liaWxpdHk6dmlzaWJsZTtmaWxsOiNmZmZmZmY7ZmlsbC1vcGFjaXR5OjE7ZmlsbC1ydWxlOm5vbnplcm87c3Ryb2tlOm5vbmU7c3Ryb2tlLXdpZHRoOjA7c3Ryb2tlLW1pdGVybGltaXQ6NDtzdHJva2UtZGFzaGFycmF5Om5vbmU7bWFya2VyOm5vbmU7ZW5hYmxlLWJhY2tncm91bmQ6YWNjdW11bGF0ZSIgaW5rc2NhcGU6Y29ubmVjdG9yLWN1cnZhdHVyZT0iMCIvPiYjeGE7ICAgIDwvZz4mI3hhOyAgICA8dGV4dCBpZD0idGV4dDIwNjYiIHk9IjE2LjgxMTc3NSIgeD0iOS45Nzk5NzY3IiBzdHlsZT0iZm9udC1zdHlsZTpub3JtYWw7Zm9udC13ZWlnaHQ6bm9ybWFsO2ZvbnQtc2l6ZToxMC41ODMzMzMwMnB4O2xpbmUtaGVpZ2h0OjYuNjE0NTgzNDlweDtmb250LWZhbWlseTpTYW5zO2xldHRlci1zcGFjaW5nOjBweDt3b3JkLXNwYWNpbmc6MHB4O2ZpbGw6I2ZmZmZmZjtmaWxsLW9wYWNpdHk6MTtzdHJva2U6bm9uZTtzdHJva2Utd2lkdGg6MC4yNjQ1ODMzMnB4O3N0cm9rZS1saW5lY2FwOmJ1dHQ7c3Ryb2tlLWxpbmVqb2luOm1pdGVyO3N0cm9rZS1vcGFjaXR5OjEiIHhtbDpzcGFjZT0icHJlc2VydmUiPjx0c3BhbiBzdHlsZT0iZm9udC1zdHlsZTpub3JtYWw7Zm9udC12YXJpYW50Om5vcm1hbDtmb250LXdlaWdodDpub3JtYWw7Zm9udC1zdHJldGNoOm5vcm1hbDtmb250LXNpemU6Mi44MjIyMjIyM3B4O2ZvbnQtZmFtaWx5OkFyaWFsOy1pbmtzY2FwZS1mb250LXNwZWNpZmljYXRpb246J0FyaWFsLCBOb3JtYWwnO3RleHQtYWxpZ246Y2VudGVyO3dyaXRpbmctbW9kZTpsci10Yjt0ZXh0LWFuY2hvcjptaWRkbGU7ZmlsbDojZmZmZmZmO2ZpbGwtb3BhY2l0eToxO3N0cm9rZS13aWR0aDowLjI2NDU4MzMycHgiIHk9IjE2LjgxMTc3NSIgeD0iOS45Nzk5NzY3IiBpZD0idHNwYW4yMDY0IiBzb2RpcG9kaTpyb2xlPSJsaW5lIj5zdmM8L3RzcGFuPjwvdGV4dD4mI3hhOyAgICA8ZyBpZD0iZzMzNDUiIHRyYW5zZm9ybT0idHJhbnNsYXRlKDAuMDkyMzg4MDEsMCkiPiYjeGE7ICAgICAgPHBhdGggc3R5bGU9ImZpbGw6I2ZmZmZmZjtmaWxsLXJ1bGU6ZXZlbm9kZDtzdHJva2U6bm9uZTtzdHJva2Utd2lkdGg6MC4yNjQ1ODMzMjtzdHJva2UtbGluZWNhcDpzcXVhcmU7c3Ryb2tlLW1pdGVybGltaXQ6MTAiIGlua3NjYXBlOmNvbm5lY3Rvci1jdXJ2YXR1cmU9IjAiIGQ9Im0gNC40OTQ5ODk2LDExLjI2MDgyNiAyLjkwODMzMTEsMCAwLDIuMDQxNjY3IC0yLjkwODMzMTEsMCB6IiBpZD0icGF0aDk2NCIvPiYjeGE7ICAgICAgPHBhdGggc3R5bGU9ImZpbGw6I2ZmZmZmZjtmaWxsLXJ1bGU6ZXZlbm9kZDtzdHJva2U6bm9uZTtzdHJva2Utd2lkdGg6MC4yNjQ1ODMzMjtzdHJva2UtbGluZWNhcDpzcXVhcmU7c3Ryb2tlLW1pdGVybGltaXQ6MTAiIGlua3NjYXBlOmNvbm5lY3Rvci1jdXJ2YXR1cmU9IjAiIGQ9Im0gOC40NjM3NDA3LDExLjI2MDgyNiAyLjkwODMzMDMsMCAwLDIuMDQxNjY3IC0yLjkwODMzMDMsMCB6IiBpZD0icGF0aDk2NiIvPiYjeGE7ICAgICAgPHBhdGggc3R5bGU9ImZpbGw6I2ZmZmZmZjtmaWxsLXJ1bGU6ZXZlbm9kZDtzdHJva2U6bm9uZTtzdHJva2Utd2lkdGg6MC4yNjQ1ODMzMjtzdHJva2UtbGluZWNhcDpzcXVhcmU7c3Ryb2tlLW1pdGVybGltaXQ6MTAiIGlua3NjYXBlOmNvbm5lY3Rvci1jdXJ2YXR1cmU9IjAiIGQ9Im0gMTIuNDMyNDkxLDExLjI2MDgyNiAyLjkwODMzLDAgMCwyLjA0MTY2NyAtMi45MDgzMywwIHoiIGlkPSJwYXRoOTY4Ii8+JiN4YTsgICAgICA8cGF0aCBzdHlsZT0iZmlsbDojZmZmZmZmO2ZpbGwtcnVsZTpldmVub2RkO3N0cm9rZTpub25lO3N0cm9rZS13aWR0aDowLjI2NDU4MzMyO3N0cm9rZS1saW5lY2FwOnNxdWFyZTtzdHJva2UtbWl0ZXJsaW1pdDoxMCIgaW5rc2NhcGU6Y29ubmVjdG9yLWN1cnZhdHVyZT0iMCIgZD0ibSA3LjYxMzc0MDcsNS4yMDgyOTIxIDQuNjA4MzMwMywwIDAsMi4wNDE2NjcgLTQuNjA4MzMwMywwIHoiIGlkPSJwYXRoOTcwIi8+JiN4YTsgICAgICA8cGF0aCBzdHlsZT0iZmlsbDpub25lO2ZpbGwtcnVsZTpldmVub2RkO3N0cm9rZTojZmZmZmZmO3N0cm9rZS13aWR0aDowLjUyOTE2NjY0O3N0cm9rZS1saW5lY2FwOmJ1dHQ7c3Ryb2tlLWxpbmVqb2luOnJvdW5kO3N0cm9rZS1taXRlcmxpbWl0OjEwO3N0cm9rZS1vcGFjaXR5OjEiIGlua3NjYXBlOmNvbm5lY3Rvci1jdXJ2YXR1cmU9IjAiIGQ9Im0gOS45MTc5MDA1LDcuMjQ5OTYwMSAwLDIuMDA1NDQ5IC0zLjk2NjY3MSwwIDAsMi4wMDI4ODU5IiBpZD0icGF0aDk3OCIvPiYjeGE7ICAgICAgPHBhdGggc3R5bGU9ImZpbGw6bm9uZTtmaWxsLXJ1bGU6ZXZlbm9kZDtzdHJva2U6I2ZmZmZmZjtzdHJva2Utd2lkdGg6MC41Mjg5OTk5ODtzdHJva2UtbGluZWNhcDpidXR0O3N0cm9rZS1saW5lam9pbjpyb3VuZDtzdHJva2UtbWl0ZXJsaW1pdDoxMDtzdHJva2UtZGFzaGFycmF5Om5vbmU7c3Ryb2tlLW9wYWNpdHk6MSIgaW5rc2NhcGU6Y29ubmVjdG9yLWN1cnZhdHVyZT0iMCIgZD0ibSA5LjkxNzkwMDUsNy4yNDk5NjAxIDAsMi4wMDU0NDkgMy45NjY2NzA1LDAgMCwyLjAwMjg4NTkiIGlkPSJwYXRoOTg2Ii8+JiN4YTsgICAgICA8cGF0aCBzdHlsZT0iZmlsbDpub25lO2ZpbGwtcnVsZTpldmVub2RkO3N0cm9rZTojZmZmZmZmO3N0cm9rZS13aWR0aDowLjUyOTE2NjY0O3N0cm9rZS1saW5lY2FwOmJ1dHQ7c3Ryb2tlLWxpbmVqb2luOnJvdW5kO3N0cm9rZS1taXRlcmxpbWl0OjEwO3N0cm9rZS1vcGFjaXR5OjEiIGlua3NjYXBlOmNvbm5lY3Rvci1jdXJ2YXR1cmU9IjAiIGQ9Im0gOS45MDk1NTM4LDcuMjUxMjI1MSAwLDIuMDA1NDQ5IDAuMDE2NywwIDAsMi4wMDI4ODU5IiBpZD0icGF0aDk4MiIvPiYjeGE7ICAgIDwvZz4mI3hhOyAgPC9nPiYjeGE7PC9zdmc+;" vertex="1" parent="1">
          <mxGeometry x="480" y="230" width="80" height="80" as="geometry" />
        </mxCell>
        <mxCell id="9iCOq9ahbUTK9QBbnLyf-7" value="app: voiture-dep" style="shape=image;verticalLabelPosition=bottom;verticalAlign=top;imageAspect=0;aspect=fixed;image=data:image/svg+xml,PHN2ZyB4bWxuczpkYz0iaHR0cDovL3B1cmwub3JnL2RjL2VsZW1lbnRzLzEuMS8iIHhtbG5zOmNjPSJodHRwOi8vY3JlYXRpdmVjb21tb25zLm9yZy9ucyMiIHhtbG5zOnJkZj0iaHR0cDovL3d3dy53My5vcmcvMTk5OS8wMi8yMi1yZGYtc3ludGF4LW5zIyIgeG1sbnM6c3ZnPSJodHRwOi8vd3d3LnczLm9yZy8yMDAwL3N2ZyIgeG1sbnM9Imh0dHA6Ly93d3cudzMub3JnLzIwMDAvc3ZnIiB4bWxuczpzb2RpcG9kaT0iaHR0cDovL3NvZGlwb2RpLnNvdXJjZWZvcmdlLm5ldC9EVEQvc29kaXBvZGktMC5kdGQiIHhtbG5zOmlua3NjYXBlPSJodHRwOi8vd3d3Lmlua3NjYXBlLm9yZy9uYW1lc3BhY2VzL2lua3NjYXBlIiB3aWR0aD0iMTguMDM1MzM0bW0iIGhlaWdodD0iMTcuNTAwMzc4bW0iIHZpZXdCb3g9IjAgMCAxOC4wMzUzMzQgMTcuNTAwMzc4IiB2ZXJzaW9uPSIxLjEiIGlkPSJzdmcxMzgyNiIgaW5rc2NhcGU6dmVyc2lvbj0iMC45MSByMTM3MjUiIHNvZGlwb2RpOmRvY25hbWU9InBvZC5zdmciPiYjeGE7ICA8ZGVmcyBpZD0iZGVmczEzODIwIi8+JiN4YTsgIDxzb2RpcG9kaTpuYW1lZHZpZXcgaWQ9ImJhc2UiIHBhZ2Vjb2xvcj0iI2ZmZmZmZiIgYm9yZGVyY29sb3I9IiM2NjY2NjYiIGJvcmRlcm9wYWNpdHk9IjEuMCIgaW5rc2NhcGU6cGFnZW9wYWNpdHk9IjAuMCIgaW5rc2NhcGU6cGFnZXNoYWRvdz0iMiIgaW5rc2NhcGU6em9vbT0iOCIgaW5rc2NhcGU6Y3g9IjE2Ljg0NzQ5NiIgaW5rc2NhcGU6Y3k9IjMzLjc1MjIzOSIgaW5rc2NhcGU6ZG9jdW1lbnQtdW5pdHM9Im1tIiBpbmtzY2FwZTpjdXJyZW50LWxheWVyPSJsYXllcjEiIHNob3dncmlkPSJmYWxzZSIgaW5rc2NhcGU6d2luZG93LXdpZHRoPSIxNDQwIiBpbmtzY2FwZTp3aW5kb3ctaGVpZ2h0PSI3NzUiIGlua3NjYXBlOndpbmRvdy14PSIwIiBpbmtzY2FwZTp3aW5kb3cteT0iMSIgaW5rc2NhcGU6d2luZG93LW1heGltaXplZD0iMSIgZml0LW1hcmdpbi10b3A9IjAiIGZpdC1tYXJnaW4tbGVmdD0iMCIgZml0LW1hcmdpbi1yaWdodD0iMCIgZml0LW1hcmdpbi1ib3R0b209IjAiLz4mI3hhOyAgPG1ldGFkYXRhIGlkPSJtZXRhZGF0YTEzODIzIj4mI3hhOyAgICA8cmRmOlJERj4mI3hhOyAgICAgIDxjYzpXb3JrIHJkZjphYm91dD0iIj4mI3hhOyAgICAgICAgPGRjOmZvcm1hdD5pbWFnZS9zdmcreG1sPC9kYzpmb3JtYXQ+JiN4YTsgICAgICAgIDxkYzp0eXBlIHJkZjpyZXNvdXJjZT0iaHR0cDovL3B1cmwub3JnL2RjL2RjbWl0eXBlL1N0aWxsSW1hZ2UiLz4mI3hhOyAgICAgICAgPGRjOnRpdGxlLz4mI3hhOyAgICAgIDwvY2M6V29yaz4mI3hhOyAgICA8L3JkZjpSREY+JiN4YTsgIDwvbWV0YWRhdGE+JiN4YTsgIDxnIGlua3NjYXBlOmxhYmVsPSJDYWxxdWUgMSIgaW5rc2NhcGU6Z3JvdXBtb2RlPSJsYXllciIgaWQ9ImxheWVyMSIgdHJhbnNmb3JtPSJ0cmFuc2xhdGUoLTAuOTkyNjI2MzgsLTEuMTc0MTgxKSI+JiN4YTsgICAgPGcgaWQ9Imc3MCIgdHJhbnNmb3JtPSJtYXRyaXgoMS4wMTQ4ODg3LDAsMCwxLjAxNDg4ODcsMTYuOTAyMTQ2LC0yLjY5ODcyNikiPiYjeGE7ICAgICAgPHBhdGggaW5rc2NhcGU6ZXhwb3J0LXlkcGk9IjI1MC41NSIgaW5rc2NhcGU6ZXhwb3J0LXhkcGk9IjI1MC41NSIgaW5rc2NhcGU6ZXhwb3J0LWZpbGVuYW1lPSJuZXcucG5nIiBpbmtzY2FwZTpjb25uZWN0b3ItY3VydmF0dXJlPSIwIiBpZD0icGF0aDMwNTUiIGQ9Im0gLTYuODQ5MjAxNSw0LjI3MjQ2NjggYSAxLjExOTEyNTUsMS4xMDk5NjcxIDAgMCAwIC0wLjQyODg4MTgsMC4xMDg1MzAzIGwgLTUuODUyNDAzNywyLjc5NjMzOTQgYSAxLjExOTEyNTUsMS4xMDk5NjcxIDAgMCAwIC0wLjYwNTUyNCwwLjc1Mjk3NTkgbCAtMS40NDM4MjgsNi4yODEyODQ2IGEgMS4xMTkxMjU1LDEuMTA5OTY3MSAwIDAgMCAwLjE1MTk0MywwLjg1MTAyOCAxLjExOTEyNTUsMS4xMDk5NjcxIDAgMCAwIDAuMDYzNjIsMC4wODgzMiBsIDQuMDUwOCw1LjAzNjU1NSBhIDEuMTE5MTI1NSwxLjEwOTk2NzEgMCAwIDAgMC44NzQ5NzksMC40MTc2NTQgbCA2LjQ5NjEwMTEsLTAuMDAxNSBhIDEuMTE5MTI1NSwxLjEwOTk2NzEgMCAwIDAgMC44NzQ5Nzg4LC0wLjQxNjkwNiBMIDEuMzgxODg3MiwxNS4xNDk0NTMgQSAxLjExOTEyNTUsMS4xMDk5NjcxIDAgMCAwIDEuNTk4MTk4NiwxNC4yMTAxMDQgTCAwLjE1MjEyNjU3LDcuOTI4ODE1NCBBIDEuMTE5MTI1NSwxLjEwOTk2NzEgMCAwIDAgLTAuNDUzMzk3OTQsNy4xNzU4Mzk2IEwgLTYuMzA2NTQ5Niw0LjM4MDk5NzEgQSAxLjExOTEyNTUsMS4xMDk5NjcxIDAgMCAwIC02Ljg0OTIwMTUsNC4yNzI0NjY4IFoiIHN0eWxlPSJmaWxsOiMzMjZjZTU7ZmlsbC1vcGFjaXR5OjE7c3Ryb2tlOm5vbmU7c3Ryb2tlLXdpZHRoOjA7c3Ryb2tlLW1pdGVybGltaXQ6NDtzdHJva2UtZGFzaGFycmF5Om5vbmU7c3Ryb2tlLW9wYWNpdHk6MSIvPiYjeGE7ICAgICAgPHBhdGggaWQ9InBhdGgzMDU0LTItOSIgZD0iTSAtNi44NTIzNDM1LDMuODE3NjM3MiBBIDEuMTgxNDMwNCwxLjE3MTc2MiAwIDAgMCAtNy4zMDQ0Mjg0LDMuOTMyOTA0IGwgLTYuMTc4NzQyNiwyLjk1MTI3NTggYSAxLjE4MTQzMDQsMS4xNzE3NjIgMCAwIDAgLTAuNjM5MjA2LDAuNzk0ODkxIGwgLTEuNTIzOTE1LDYuNjMwODI4MiBhIDEuMTgxNDMwNCwxLjE3MTc2MiAwIDAgMCAwLjE2MDE3NSwwLjg5ODkzIDEuMTgxNDMwNCwxLjE3MTc2MiAwIDAgMCAwLjA2NzM2LDAuMDkyODEgbCA0LjI3NjA5NCw1LjMxNzIzNiBhIDEuMTgxNDMwNCwxLjE3MTc2MiAwIDAgMCAwLjkyMzYzLDAuNDQwODU4IGwgNi44NTc2MTg4LC0wLjAwMTUgYSAxLjE4MTQzMDQsMS4xNzE3NjIgMCAwIDAgMC45MjM2MzA4LC0wLjQ0MDExIGwgNC4yNzQ1OTY2LC01LjMxNzk4NSBhIDEuMTgxNDMwNCwxLjE3MTc2MiAwIDAgMCAwLjIyODI4OCwtMC45OTA5OTMgTCAwLjUzODk0NDM5LDcuNjc3NTczOCBBIDEuMTgxNDMwNCwxLjE3MTc2MiAwIDAgMCAtMC4xMDAyNjEwMSw2Ljg4MzQzMTMgTCAtNi4yNzkwMDM3LDMuOTMyMTU1NSBBIDEuMTgxNDMwNCwxLjE3MTc2MiAwIDAgMCAtNi44NTIzNDM1LDMuODE3NjM3MiBaIG0gMC4wMDI5OSwwLjQ1NTA3ODkgYSAxLjExOTEyNTUsMS4xMDk5NjcxIDAgMCAxIDAuNTQyNjUxNywwLjEwODUzMDMgbCA1Ljg1MzE1MTY5LDIuNzk0ODQyNSBBIDEuMTE5MTI1NSwxLjEwOTk2NzEgMCAwIDEgMC4xNTE5NzgxMSw3LjkyOTA2NDggTCAxLjU5ODA1MSwxNC4yMTAzNSBhIDEuMTE5MTI1NSwxLjEwOTk2NzEgMCAwIDEgLTAuMjE2MzEyMywwLjkzOTM0OCBsIC00LjA0OTMwMzIsNS4wMzczMDQgYSAxLjExOTEyNTUsMS4xMDk5NjcxIDAgMCAxIC0wLjg3NDk3ODksMC40MTY5MDYgbCAtNi40OTYxMDA2LDAuMDAxNSBhIDEuMTE5MTI1NSwxLjEwOTk2NzEgMCAwIDEgLTAuODc0OTc5LC0wLjQxNzY1MiBsIC00LjA1MDgsLTUuMDM2NTU0IGEgMS4xMTkxMjU1LDEuMTA5OTY3MSAwIDAgMSAtMC4wNjM2MiwtMC4wODgzMiAxLjExOTEyNTUsMS4xMDk5NjcxIDAgMCAxIC0wLjE1MTk0MiwtMC44NTEwMjggbCAxLjQ0MzgyNywtNi4yODEyODUzIGEgMS4xMTkxMjU1LDEuMTA5OTY3MSAwIDAgMSAwLjYwNTUyNCwtMC43NTI5NzU4IGwgNS44NTI0MDM2LC0yLjc5NjMzOTUgYSAxLjExOTEyNTUsMS4xMDk5NjcxIDAgMCAxIDAuNDI4ODgxOSwtMC4xMDg1MzAzIHoiIHN0eWxlPSJjb2xvcjojMDAwMDAwO2ZvbnQtc3R5bGU6bm9ybWFsO2ZvbnQtdmFyaWFudDpub3JtYWw7Zm9udC13ZWlnaHQ6bm9ybWFsO2ZvbnQtc3RyZXRjaDpub3JtYWw7Zm9udC1zaXplOm1lZGl1bTtsaW5lLWhlaWdodDpub3JtYWw7Zm9udC1mYW1pbHk6U2FuczstaW5rc2NhcGUtZm9udC1zcGVjaWZpY2F0aW9uOlNhbnM7dGV4dC1pbmRlbnQ6MDt0ZXh0LWFsaWduOnN0YXJ0O3RleHQtZGVjb3JhdGlvbjpub25lO3RleHQtZGVjb3JhdGlvbi1saW5lOm5vbmU7bGV0dGVyLXNwYWNpbmc6bm9ybWFsO3dvcmQtc3BhY2luZzpub3JtYWw7dGV4dC10cmFuc2Zvcm06bm9uZTt3cml0aW5nLW1vZGU6bHItdGI7ZGlyZWN0aW9uOmx0cjtiYXNlbGluZS1zaGlmdDpiYXNlbGluZTt0ZXh0LWFuY2hvcjpzdGFydDtkaXNwbGF5OmlubGluZTtvdmVyZmxvdzp2aXNpYmxlO3Zpc2liaWxpdHk6dmlzaWJsZTtmaWxsOiNmZmZmZmY7ZmlsbC1vcGFjaXR5OjE7ZmlsbC1ydWxlOm5vbnplcm87c3Ryb2tlOm5vbmU7c3Ryb2tlLXdpZHRoOjA7c3Ryb2tlLW1pdGVybGltaXQ6NDtzdHJva2UtZGFzaGFycmF5Om5vbmU7bWFya2VyOm5vbmU7ZW5hYmxlLWJhY2tncm91bmQ6YWNjdW11bGF0ZSIgaW5rc2NhcGU6Y29ubmVjdG9yLWN1cnZhdHVyZT0iMCIvPiYjeGE7ICAgIDwvZz4mI3hhOyAgICA8dGV4dCBpZD0idGV4dDIwNjYiIHk9IjE2LjgxMTc3NSIgeD0iMTAuMDE3MTgzIiBzdHlsZT0iZm9udC1zdHlsZTpub3JtYWw7Zm9udC13ZWlnaHQ6bm9ybWFsO2ZvbnQtc2l6ZToxMC41ODMzMzMwMnB4O2xpbmUtaGVpZ2h0OjYuNjE0NTgzNDlweDtmb250LWZhbWlseTpTYW5zO2xldHRlci1zcGFjaW5nOjBweDt3b3JkLXNwYWNpbmc6MHB4O2ZpbGw6I2ZmZmZmZjtmaWxsLW9wYWNpdHk6MTtzdHJva2U6bm9uZTtzdHJva2Utd2lkdGg6MC4yNjQ1ODMzMnB4O3N0cm9rZS1saW5lY2FwOmJ1dHQ7c3Ryb2tlLWxpbmVqb2luOm1pdGVyO3N0cm9rZS1vcGFjaXR5OjEiIHhtbDpzcGFjZT0icHJlc2VydmUiPjx0c3BhbiBzdHlsZT0iZm9udC1zdHlsZTpub3JtYWw7Zm9udC12YXJpYW50Om5vcm1hbDtmb250LXdlaWdodDpub3JtYWw7Zm9udC1zdHJldGNoOm5vcm1hbDtmb250LXNpemU6Mi44MjIyMjIyM3B4O2ZvbnQtZmFtaWx5OkFyaWFsOy1pbmtzY2FwZS1mb250LXNwZWNpZmljYXRpb246J0FyaWFsLCBOb3JtYWwnO3RleHQtYWxpZ246Y2VudGVyO3dyaXRpbmctbW9kZTpsci10Yjt0ZXh0LWFuY2hvcjptaWRkbGU7ZmlsbDojZmZmZmZmO2ZpbGwtb3BhY2l0eToxO3N0cm9rZS13aWR0aDowLjI2NDU4MzMycHgiIHk9IjE2LjgxMTc3NSIgeD0iMTAuMDE3MTgzIiBpZD0idHNwYW4yMDY0IiBzb2RpcG9kaTpyb2xlPSJsaW5lIj5wb2Q8L3RzcGFuPjwvdGV4dD4mI3hhOyAgICA8ZyBpZD0iZzMzNDEiIHRyYW5zZm9ybT0idHJhbnNsYXRlKDAuMTI3NjY2NjEsMCkiPiYjeGE7ICAgICAgPHBhdGggaW5rc2NhcGU6ZXhwb3J0LXlkcGk9IjM3Ni41Nzk5OSIgaW5rc2NhcGU6ZXhwb3J0LXhkcGk9IjM3Ni41Nzk5OSIgc3R5bGU9ImZpbGw6I2ZmZmZmZjtmaWxsLXJ1bGU6ZXZlbm9kZDtzdHJva2U6bm9uZTtzdHJva2Utd2lkdGg6MC4yNjQ1ODMzMjtzdHJva2UtbGluZWNhcDpzcXVhcmU7c3Ryb2tlLW1pdGVybGltaXQ6MTAiIGlua3NjYXBlOmNvbm5lY3Rvci1jdXJ2YXR1cmU9IjAiIGQ9Ik0gNi4yNjE3OTE0LDcuMDM2MDg2IDkuODgyNjMxNyw1Ljk4NjA4NyAxMy41MDM0NjIsNy4wMzYwODYgOS44ODI2MzE3LDguMDg2MDg3IFoiIGlkPSJwYXRoOTEwIi8+JiN4YTsgICAgICA8cGF0aCBpbmtzY2FwZTpleHBvcnQteWRwaT0iMzc2LjU3OTk5IiBpbmtzY2FwZTpleHBvcnQteGRwaT0iMzc2LjU3OTk5IiBzdHlsZT0iZmlsbDojZmZmZmZmO2ZpbGwtcnVsZTpldmVub2RkO3N0cm9rZTpub25lO3N0cm9rZS13aWR0aDowLjI2NDU4MzMyO3N0cm9rZS1saW5lY2FwOnNxdWFyZTtzdHJva2UtbWl0ZXJsaW1pdDoxMCIgaW5rc2NhcGU6Y29ubmVjdG9yLWN1cnZhdHVyZT0iMCIgZD0ibSA2LjI2MTc5MTQsNy40MzgxNyAwLDMuODUyNzc4IDMuMzczNjEwMywxLjg2ODc0OSAwLjAxNjcsLTQuNzEzMTkzIHoiIGlkPSJwYXRoOTEyIi8+JiN4YTsgICAgICA8cGF0aCBpbmtzY2FwZTpleHBvcnQteWRwaT0iMzc2LjU3OTk5IiBpbmtzY2FwZTpleHBvcnQteGRwaT0iMzc2LjU3OTk5IiBzdHlsZT0iZmlsbDojZmZmZmZmO2ZpbGwtcnVsZTpldmVub2RkO3N0cm9rZTpub25lO3N0cm9rZS13aWR0aDowLjI2NDU4MzMyO3N0cm9rZS1saW5lY2FwOnNxdWFyZTtzdHJva2UtbWl0ZXJsaW1pdDoxMCIgaW5rc2NhcGU6Y29ubmVjdG9yLWN1cnZhdHVyZT0iMCIgZD0ibSAxMy41MDM0NjIsNy40MzgxNyAwLDMuODUyNzc4IC0zLjM3MzYxLDEuODY4NzQ5IC0wLjAxNjcsLTQuNzEzMTkzIHoiIGlkPSJwYXRoOTE0Ii8+JiN4YTsgICAgPC9nPiYjeGE7ICA8L2c+JiN4YTs8L3N2Zz4=;" vertex="1" parent="1">
          <mxGeometry x="620" y="230" width="80" height="80" as="geometry" />
        </mxCell>
        <mxCell id="9iCOq9ahbUTK9QBbnLyf-8" value="app: maDB" style="shape=image;verticalLabelPosition=bottom;verticalAlign=top;imageAspect=0;aspect=fixed;image=data:image/svg+xml,PHN2ZyB4bWxuczpkYz0iaHR0cDovL3B1cmwub3JnL2RjL2VsZW1lbnRzLzEuMS8iIHhtbG5zOmNjPSJodHRwOi8vY3JlYXRpdmVjb21tb25zLm9yZy9ucyMiIHhtbG5zOnJkZj0iaHR0cDovL3d3dy53My5vcmcvMTk5OS8wMi8yMi1yZGYtc3ludGF4LW5zIyIgeG1sbnM6c3ZnPSJodHRwOi8vd3d3LnczLm9yZy8yMDAwL3N2ZyIgeG1sbnM9Imh0dHA6Ly93d3cudzMub3JnLzIwMDAvc3ZnIiB4bWxuczpzb2RpcG9kaT0iaHR0cDovL3NvZGlwb2RpLnNvdXJjZWZvcmdlLm5ldC9EVEQvc29kaXBvZGktMC5kdGQiIHhtbG5zOmlua3NjYXBlPSJodHRwOi8vd3d3Lmlua3NjYXBlLm9yZy9uYW1lc3BhY2VzL2lua3NjYXBlIiB3aWR0aD0iMTguMDM1MzM0bW0iIGhlaWdodD0iMTcuNTAwMzc4bW0iIHZpZXdCb3g9IjAgMCAxOC4wMzUzMzQgMTcuNTAwMzc4IiB2ZXJzaW9uPSIxLjEiIGlkPSJzdmcxMzgyNiIgaW5rc2NhcGU6dmVyc2lvbj0iMC45MSByMTM3MjUiIHNvZGlwb2RpOmRvY25hbWU9InBvZC5zdmciPiYjeGE7ICA8ZGVmcyBpZD0iZGVmczEzODIwIi8+JiN4YTsgIDxzb2RpcG9kaTpuYW1lZHZpZXcgaWQ9ImJhc2UiIHBhZ2Vjb2xvcj0iI2ZmZmZmZiIgYm9yZGVyY29sb3I9IiM2NjY2NjYiIGJvcmRlcm9wYWNpdHk9IjEuMCIgaW5rc2NhcGU6cGFnZW9wYWNpdHk9IjAuMCIgaW5rc2NhcGU6cGFnZXNoYWRvdz0iMiIgaW5rc2NhcGU6em9vbT0iOCIgaW5rc2NhcGU6Y3g9IjE2Ljg0NzQ5NiIgaW5rc2NhcGU6Y3k9IjMzLjc1MjIzOSIgaW5rc2NhcGU6ZG9jdW1lbnQtdW5pdHM9Im1tIiBpbmtzY2FwZTpjdXJyZW50LWxheWVyPSJsYXllcjEiIHNob3dncmlkPSJmYWxzZSIgaW5rc2NhcGU6d2luZG93LXdpZHRoPSIxNDQwIiBpbmtzY2FwZTp3aW5kb3ctaGVpZ2h0PSI3NzUiIGlua3NjYXBlOndpbmRvdy14PSIwIiBpbmtzY2FwZTp3aW5kb3cteT0iMSIgaW5rc2NhcGU6d2luZG93LW1heGltaXplZD0iMSIgZml0LW1hcmdpbi10b3A9IjAiIGZpdC1tYXJnaW4tbGVmdD0iMCIgZml0LW1hcmdpbi1yaWdodD0iMCIgZml0LW1hcmdpbi1ib3R0b209IjAiLz4mI3hhOyAgPG1ldGFkYXRhIGlkPSJtZXRhZGF0YTEzODIzIj4mI3hhOyAgICA8cmRmOlJERj4mI3hhOyAgICAgIDxjYzpXb3JrIHJkZjphYm91dD0iIj4mI3hhOyAgICAgICAgPGRjOmZvcm1hdD5pbWFnZS9zdmcreG1sPC9kYzpmb3JtYXQ+JiN4YTsgICAgICAgIDxkYzp0eXBlIHJkZjpyZXNvdXJjZT0iaHR0cDovL3B1cmwub3JnL2RjL2RjbWl0eXBlL1N0aWxsSW1hZ2UiLz4mI3hhOyAgICAgICAgPGRjOnRpdGxlLz4mI3hhOyAgICAgIDwvY2M6V29yaz4mI3hhOyAgICA8L3JkZjpSREY+JiN4YTsgIDwvbWV0YWRhdGE+JiN4YTsgIDxnIGlua3NjYXBlOmxhYmVsPSJDYWxxdWUgMSIgaW5rc2NhcGU6Z3JvdXBtb2RlPSJsYXllciIgaWQ9ImxheWVyMSIgdHJhbnNmb3JtPSJ0cmFuc2xhdGUoLTAuOTkyNjI2MzgsLTEuMTc0MTgxKSI+JiN4YTsgICAgPGcgaWQ9Imc3MCIgdHJhbnNmb3JtPSJtYXRyaXgoMS4wMTQ4ODg3LDAsMCwxLjAxNDg4ODcsMTYuOTAyMTQ2LC0yLjY5ODcyNikiPiYjeGE7ICAgICAgPHBhdGggaW5rc2NhcGU6ZXhwb3J0LXlkcGk9IjI1MC41NSIgaW5rc2NhcGU6ZXhwb3J0LXhkcGk9IjI1MC41NSIgaW5rc2NhcGU6ZXhwb3J0LWZpbGVuYW1lPSJuZXcucG5nIiBpbmtzY2FwZTpjb25uZWN0b3ItY3VydmF0dXJlPSIwIiBpZD0icGF0aDMwNTUiIGQ9Im0gLTYuODQ5MjAxNSw0LjI3MjQ2NjggYSAxLjExOTEyNTUsMS4xMDk5NjcxIDAgMCAwIC0wLjQyODg4MTgsMC4xMDg1MzAzIGwgLTUuODUyNDAzNywyLjc5NjMzOTQgYSAxLjExOTEyNTUsMS4xMDk5NjcxIDAgMCAwIC0wLjYwNTUyNCwwLjc1Mjk3NTkgbCAtMS40NDM4MjgsNi4yODEyODQ2IGEgMS4xMTkxMjU1LDEuMTA5OTY3MSAwIDAgMCAwLjE1MTk0MywwLjg1MTAyOCAxLjExOTEyNTUsMS4xMDk5NjcxIDAgMCAwIDAuMDYzNjIsMC4wODgzMiBsIDQuMDUwOCw1LjAzNjU1NSBhIDEuMTE5MTI1NSwxLjEwOTk2NzEgMCAwIDAgMC44NzQ5NzksMC40MTc2NTQgbCA2LjQ5NjEwMTEsLTAuMDAxNSBhIDEuMTE5MTI1NSwxLjEwOTk2NzEgMCAwIDAgMC44NzQ5Nzg4LC0wLjQxNjkwNiBMIDEuMzgxODg3MiwxNS4xNDk0NTMgQSAxLjExOTEyNTUsMS4xMDk5NjcxIDAgMCAwIDEuNTk4MTk4NiwxNC4yMTAxMDQgTCAwLjE1MjEyNjU3LDcuOTI4ODE1NCBBIDEuMTE5MTI1NSwxLjEwOTk2NzEgMCAwIDAgLTAuNDUzMzk3OTQsNy4xNzU4Mzk2IEwgLTYuMzA2NTQ5Niw0LjM4MDk5NzEgQSAxLjExOTEyNTUsMS4xMDk5NjcxIDAgMCAwIC02Ljg0OTIwMTUsNC4yNzI0NjY4IFoiIHN0eWxlPSJmaWxsOiMzMjZjZTU7ZmlsbC1vcGFjaXR5OjE7c3Ryb2tlOm5vbmU7c3Ryb2tlLXdpZHRoOjA7c3Ryb2tlLW1pdGVybGltaXQ6NDtzdHJva2UtZGFzaGFycmF5Om5vbmU7c3Ryb2tlLW9wYWNpdHk6MSIvPiYjeGE7ICAgICAgPHBhdGggaWQ9InBhdGgzMDU0LTItOSIgZD0iTSAtNi44NTIzNDM1LDMuODE3NjM3MiBBIDEuMTgxNDMwNCwxLjE3MTc2MiAwIDAgMCAtNy4zMDQ0Mjg0LDMuOTMyOTA0IGwgLTYuMTc4NzQyNiwyLjk1MTI3NTggYSAxLjE4MTQzMDQsMS4xNzE3NjIgMCAwIDAgLTAuNjM5MjA2LDAuNzk0ODkxIGwgLTEuNTIzOTE1LDYuNjMwODI4MiBhIDEuMTgxNDMwNCwxLjE3MTc2MiAwIDAgMCAwLjE2MDE3NSwwLjg5ODkzIDEuMTgxNDMwNCwxLjE3MTc2MiAwIDAgMCAwLjA2NzM2LDAuMDkyODEgbCA0LjI3NjA5NCw1LjMxNzIzNiBhIDEuMTgxNDMwNCwxLjE3MTc2MiAwIDAgMCAwLjkyMzYzLDAuNDQwODU4IGwgNi44NTc2MTg4LC0wLjAwMTUgYSAxLjE4MTQzMDQsMS4xNzE3NjIgMCAwIDAgMC45MjM2MzA4LC0wLjQ0MDExIGwgNC4yNzQ1OTY2LC01LjMxNzk4NSBhIDEuMTgxNDMwNCwxLjE3MTc2MiAwIDAgMCAwLjIyODI4OCwtMC45OTA5OTMgTCAwLjUzODk0NDM5LDcuNjc3NTczOCBBIDEuMTgxNDMwNCwxLjE3MTc2MiAwIDAgMCAtMC4xMDAyNjEwMSw2Ljg4MzQzMTMgTCAtNi4yNzkwMDM3LDMuOTMyMTU1NSBBIDEuMTgxNDMwNCwxLjE3MTc2MiAwIDAgMCAtNi44NTIzNDM1LDMuODE3NjM3MiBaIG0gMC4wMDI5OSwwLjQ1NTA3ODkgYSAxLjExOTEyNTUsMS4xMDk5NjcxIDAgMCAxIDAuNTQyNjUxNywwLjEwODUzMDMgbCA1Ljg1MzE1MTY5LDIuNzk0ODQyNSBBIDEuMTE5MTI1NSwxLjEwOTk2NzEgMCAwIDEgMC4xNTE5NzgxMSw3LjkyOTA2NDggTCAxLjU5ODA1MSwxNC4yMTAzNSBhIDEuMTE5MTI1NSwxLjEwOTk2NzEgMCAwIDEgLTAuMjE2MzEyMywwLjkzOTM0OCBsIC00LjA0OTMwMzIsNS4wMzczMDQgYSAxLjExOTEyNTUsMS4xMDk5NjcxIDAgMCAxIC0wLjg3NDk3ODksMC40MTY5MDYgbCAtNi40OTYxMDA2LDAuMDAxNSBhIDEuMTE5MTI1NSwxLjEwOTk2NzEgMCAwIDEgLTAuODc0OTc5LC0wLjQxNzY1MiBsIC00LjA1MDgsLTUuMDM2NTU0IGEgMS4xMTkxMjU1LDEuMTA5OTY3MSAwIDAgMSAtMC4wNjM2MiwtMC4wODgzMiAxLjExOTEyNTUsMS4xMDk5NjcxIDAgMCAxIC0wLjE1MTk0MiwtMC44NTEwMjggbCAxLjQ0MzgyNywtNi4yODEyODUzIGEgMS4xMTkxMjU1LDEuMTA5OTY3MSAwIDAgMSAwLjYwNTUyNCwtMC43NTI5NzU4IGwgNS44NTI0MDM2LC0yLjc5NjMzOTUgYSAxLjExOTEyNTUsMS4xMDk5NjcxIDAgMCAxIDAuNDI4ODgxOSwtMC4xMDg1MzAzIHoiIHN0eWxlPSJjb2xvcjojMDAwMDAwO2ZvbnQtc3R5bGU6bm9ybWFsO2ZvbnQtdmFyaWFudDpub3JtYWw7Zm9udC13ZWlnaHQ6bm9ybWFsO2ZvbnQtc3RyZXRjaDpub3JtYWw7Zm9udC1zaXplOm1lZGl1bTtsaW5lLWhlaWdodDpub3JtYWw7Zm9udC1mYW1pbHk6U2FuczstaW5rc2NhcGUtZm9udC1zcGVjaWZpY2F0aW9uOlNhbnM7dGV4dC1pbmRlbnQ6MDt0ZXh0LWFsaWduOnN0YXJ0O3RleHQtZGVjb3JhdGlvbjpub25lO3RleHQtZGVjb3JhdGlvbi1saW5lOm5vbmU7bGV0dGVyLXNwYWNpbmc6bm9ybWFsO3dvcmQtc3BhY2luZzpub3JtYWw7dGV4dC10cmFuc2Zvcm06bm9uZTt3cml0aW5nLW1vZGU6bHItdGI7ZGlyZWN0aW9uOmx0cjtiYXNlbGluZS1zaGlmdDpiYXNlbGluZTt0ZXh0LWFuY2hvcjpzdGFydDtkaXNwbGF5OmlubGluZTtvdmVyZmxvdzp2aXNpYmxlO3Zpc2liaWxpdHk6dmlzaWJsZTtmaWxsOiNmZmZmZmY7ZmlsbC1vcGFjaXR5OjE7ZmlsbC1ydWxlOm5vbnplcm87c3Ryb2tlOm5vbmU7c3Ryb2tlLXdpZHRoOjA7c3Ryb2tlLW1pdGVybGltaXQ6NDtzdHJva2UtZGFzaGFycmF5Om5vbmU7bWFya2VyOm5vbmU7ZW5hYmxlLWJhY2tncm91bmQ6YWNjdW11bGF0ZSIgaW5rc2NhcGU6Y29ubmVjdG9yLWN1cnZhdHVyZT0iMCIvPiYjeGE7ICAgIDwvZz4mI3hhOyAgICA8dGV4dCBpZD0idGV4dDIwNjYiIHk9IjE2LjgxMTc3NSIgeD0iMTAuMDE3MTgzIiBzdHlsZT0iZm9udC1zdHlsZTpub3JtYWw7Zm9udC13ZWlnaHQ6bm9ybWFsO2ZvbnQtc2l6ZToxMC41ODMzMzMwMnB4O2xpbmUtaGVpZ2h0OjYuNjE0NTgzNDlweDtmb250LWZhbWlseTpTYW5zO2xldHRlci1zcGFjaW5nOjBweDt3b3JkLXNwYWNpbmc6MHB4O2ZpbGw6I2ZmZmZmZjtmaWxsLW9wYWNpdHk6MTtzdHJva2U6bm9uZTtzdHJva2Utd2lkdGg6MC4yNjQ1ODMzMnB4O3N0cm9rZS1saW5lY2FwOmJ1dHQ7c3Ryb2tlLWxpbmVqb2luOm1pdGVyO3N0cm9rZS1vcGFjaXR5OjEiIHhtbDpzcGFjZT0icHJlc2VydmUiPjx0c3BhbiBzdHlsZT0iZm9udC1zdHlsZTpub3JtYWw7Zm9udC12YXJpYW50Om5vcm1hbDtmb250LXdlaWdodDpub3JtYWw7Zm9udC1zdHJldGNoOm5vcm1hbDtmb250LXNpemU6Mi44MjIyMjIyM3B4O2ZvbnQtZmFtaWx5OkFyaWFsOy1pbmtzY2FwZS1mb250LXNwZWNpZmljYXRpb246J0FyaWFsLCBOb3JtYWwnO3RleHQtYWxpZ246Y2VudGVyO3dyaXRpbmctbW9kZTpsci10Yjt0ZXh0LWFuY2hvcjptaWRkbGU7ZmlsbDojZmZmZmZmO2ZpbGwtb3BhY2l0eToxO3N0cm9rZS13aWR0aDowLjI2NDU4MzMycHgiIHk9IjE2LjgxMTc3NSIgeD0iMTAuMDE3MTgzIiBpZD0idHNwYW4yMDY0IiBzb2RpcG9kaTpyb2xlPSJsaW5lIj5wb2Q8L3RzcGFuPjwvdGV4dD4mI3hhOyAgICA8ZyBpZD0iZzMzNDEiIHRyYW5zZm9ybT0idHJhbnNsYXRlKDAuMTI3NjY2NjEsMCkiPiYjeGE7ICAgICAgPHBhdGggaW5rc2NhcGU6ZXhwb3J0LXlkcGk9IjM3Ni41Nzk5OSIgaW5rc2NhcGU6ZXhwb3J0LXhkcGk9IjM3Ni41Nzk5OSIgc3R5bGU9ImZpbGw6I2ZmZmZmZjtmaWxsLXJ1bGU6ZXZlbm9kZDtzdHJva2U6bm9uZTtzdHJva2Utd2lkdGg6MC4yNjQ1ODMzMjtzdHJva2UtbGluZWNhcDpzcXVhcmU7c3Ryb2tlLW1pdGVybGltaXQ6MTAiIGlua3NjYXBlOmNvbm5lY3Rvci1jdXJ2YXR1cmU9IjAiIGQ9Ik0gNi4yNjE3OTE0LDcuMDM2MDg2IDkuODgyNjMxNyw1Ljk4NjA4NyAxMy41MDM0NjIsNy4wMzYwODYgOS44ODI2MzE3LDguMDg2MDg3IFoiIGlkPSJwYXRoOTEwIi8+JiN4YTsgICAgICA8cGF0aCBpbmtzY2FwZTpleHBvcnQteWRwaT0iMzc2LjU3OTk5IiBpbmtzY2FwZTpleHBvcnQteGRwaT0iMzc2LjU3OTk5IiBzdHlsZT0iZmlsbDojZmZmZmZmO2ZpbGwtcnVsZTpldmVub2RkO3N0cm9rZTpub25lO3N0cm9rZS13aWR0aDowLjI2NDU4MzMyO3N0cm9rZS1saW5lY2FwOnNxdWFyZTtzdHJva2UtbWl0ZXJsaW1pdDoxMCIgaW5rc2NhcGU6Y29ubmVjdG9yLWN1cnZhdHVyZT0iMCIgZD0ibSA2LjI2MTc5MTQsNy40MzgxNyAwLDMuODUyNzc4IDMuMzczNjEwMywxLjg2ODc0OSAwLjAxNjcsLTQuNzEzMTkzIHoiIGlkPSJwYXRoOTEyIi8+JiN4YTsgICAgICA8cGF0aCBpbmtzY2FwZTpleHBvcnQteWRwaT0iMzc2LjU3OTk5IiBpbmtzY2FwZTpleHBvcnQteGRwaT0iMzc2LjU3OTk5IiBzdHlsZT0iZmlsbDojZmZmZmZmO2ZpbGwtcnVsZTpldmVub2RkO3N0cm9rZTpub25lO3N0cm9rZS13aWR0aDowLjI2NDU4MzMyO3N0cm9rZS1saW5lY2FwOnNxdWFyZTtzdHJva2UtbWl0ZXJsaW1pdDoxMCIgaW5rc2NhcGU6Y29ubmVjdG9yLWN1cnZhdHVyZT0iMCIgZD0ibSAxMy41MDM0NjIsNy40MzgxNyAwLDMuODUyNzc4IC0zLjM3MzYxLDEuODY4NzQ5IC0wLjAxNjcsLTQuNzEzMTkzIHoiIGlkPSJwYXRoOTE0Ii8+JiN4YTsgICAgPC9nPiYjeGE7ICA8L2c+JiN4YTs8L3N2Zz4=;" vertex="1" parent="1">
          <mxGeometry x="620" y="370" width="80" height="80" as="geometry" />
        </mxCell>
        <mxCell id="9iCOq9ahbUTK9QBbnLyf-22" style="edgeStyle=orthogonalEdgeStyle;rounded=0;orthogonalLoop=1;jettySize=auto;html=1;exitX=1;exitY=0.5;exitDx=0;exitDy=0;entryX=0;entryY=0.5;entryDx=0;entryDy=0;" edge="1" parent="1" source="9iCOq9ahbUTK9QBbnLyf-10" target="9iCOq9ahbUTK9QBbnLyf-8">
          <mxGeometry relative="1" as="geometry" />
        </mxCell>
        <mxCell id="9iCOq9ahbUTK9QBbnLyf-10" value="service DB" style="shape=image;verticalLabelPosition=bottom;verticalAlign=top;imageAspect=0;aspect=fixed;image=data:image/svg+xml,PHN2ZyB4bWxuczpkYz0iaHR0cDovL3B1cmwub3JnL2RjL2VsZW1lbnRzLzEuMS8iIHhtbG5zOmNjPSJodHRwOi8vY3JlYXRpdmVjb21tb25zLm9yZy9ucyMiIHhtbG5zOnJkZj0iaHR0cDovL3d3dy53My5vcmcvMTk5OS8wMi8yMi1yZGYtc3ludGF4LW5zIyIgeG1sbnM6c3ZnPSJodHRwOi8vd3d3LnczLm9yZy8yMDAwL3N2ZyIgeG1sbnM9Imh0dHA6Ly93d3cudzMub3JnLzIwMDAvc3ZnIiB4bWxuczpzb2RpcG9kaT0iaHR0cDovL3NvZGlwb2RpLnNvdXJjZWZvcmdlLm5ldC9EVEQvc29kaXBvZGktMC5kdGQiIHhtbG5zOmlua3NjYXBlPSJodHRwOi8vd3d3Lmlua3NjYXBlLm9yZy9uYW1lc3BhY2VzL2lua3NjYXBlIiB3aWR0aD0iMTguMDM1MzM0bW0iIGhlaWdodD0iMTcuNTAwMzc4bW0iIHZpZXdCb3g9IjAgMCAxOC4wMzUzMzQgMTcuNTAwMzc4IiB2ZXJzaW9uPSIxLjEiIGlkPSJzdmcxMzgyNiIgaW5rc2NhcGU6dmVyc2lvbj0iMC45MSByMTM3MjUiIHNvZGlwb2RpOmRvY25hbWU9InN2Yy5zdmciPiYjeGE7ICA8ZGVmcyBpZD0iZGVmczEzODIwIi8+JiN4YTsgIDxzb2RpcG9kaTpuYW1lZHZpZXcgaWQ9ImJhc2UiIHBhZ2Vjb2xvcj0iI2ZmZmZmZiIgYm9yZGVyY29sb3I9IiM2NjY2NjYiIGJvcmRlcm9wYWNpdHk9IjEuMCIgaW5rc2NhcGU6cGFnZW9wYWNpdHk9IjAuMCIgaW5rc2NhcGU6cGFnZXNoYWRvdz0iMiIgaW5rc2NhcGU6em9vbT0iOCIgaW5rc2NhcGU6Y3g9IjE2Ljg0NzQ5NiIgaW5rc2NhcGU6Y3k9IjI4Ljc1MjIzOSIgaW5rc2NhcGU6ZG9jdW1lbnQtdW5pdHM9Im1tIiBpbmtzY2FwZTpjdXJyZW50LWxheWVyPSJsYXllcjEiIHNob3dncmlkPSJmYWxzZSIgaW5rc2NhcGU6d2luZG93LXdpZHRoPSIxNDQwIiBpbmtzY2FwZTp3aW5kb3ctaGVpZ2h0PSI3NzUiIGlua3NjYXBlOndpbmRvdy14PSIwIiBpbmtzY2FwZTp3aW5kb3cteT0iMSIgaW5rc2NhcGU6d2luZG93LW1heGltaXplZD0iMSIgZml0LW1hcmdpbi10b3A9IjAiIGZpdC1tYXJnaW4tbGVmdD0iMCIgZml0LW1hcmdpbi1yaWdodD0iMCIgZml0LW1hcmdpbi1ib3R0b209IjAiLz4mI3hhOyAgPG1ldGFkYXRhIGlkPSJtZXRhZGF0YTEzODIzIj4mI3hhOyAgICA8cmRmOlJERj4mI3hhOyAgICAgIDxjYzpXb3JrIHJkZjphYm91dD0iIj4mI3hhOyAgICAgICAgPGRjOmZvcm1hdD5pbWFnZS9zdmcreG1sPC9kYzpmb3JtYXQ+JiN4YTsgICAgICAgIDxkYzp0eXBlIHJkZjpyZXNvdXJjZT0iaHR0cDovL3B1cmwub3JnL2RjL2RjbWl0eXBlL1N0aWxsSW1hZ2UiLz4mI3hhOyAgICAgICAgPGRjOnRpdGxlLz4mI3hhOyAgICAgIDwvY2M6V29yaz4mI3hhOyAgICA8L3JkZjpSREY+JiN4YTsgIDwvbWV0YWRhdGE+JiN4YTsgIDxnIGlua3NjYXBlOmxhYmVsPSJDYWxxdWUgMSIgaW5rc2NhcGU6Z3JvdXBtb2RlPSJsYXllciIgaWQ9ImxheWVyMSIgdHJhbnNmb3JtPSJ0cmFuc2xhdGUoLTAuOTkyNjI2MzgsLTEuMTc0MTgxKSI+JiN4YTsgICAgPGcgaWQ9Imc3MCIgdHJhbnNmb3JtPSJtYXRyaXgoMS4wMTQ4ODg3LDAsMCwxLjAxNDg4ODcsMTYuOTAyMTQ2LC0yLjY5ODcyNikiPiYjeGE7ICAgICAgPHBhdGggaW5rc2NhcGU6ZXhwb3J0LXlkcGk9IjI1MC41NSIgaW5rc2NhcGU6ZXhwb3J0LXhkcGk9IjI1MC41NSIgaW5rc2NhcGU6ZXhwb3J0LWZpbGVuYW1lPSJuZXcucG5nIiBpbmtzY2FwZTpjb25uZWN0b3ItY3VydmF0dXJlPSIwIiBpZD0icGF0aDMwNTUiIGQ9Im0gLTYuODQ5MjAxNSw0LjI3MjQ2NjggYSAxLjExOTEyNTUsMS4xMDk5NjcxIDAgMCAwIC0wLjQyODg4MTgsMC4xMDg1MzAzIGwgLTUuODUyNDAzNywyLjc5NjMzOTQgYSAxLjExOTEyNTUsMS4xMDk5NjcxIDAgMCAwIC0wLjYwNTUyNCwwLjc1Mjk3NTkgbCAtMS40NDM4MjgsNi4yODEyODQ2IGEgMS4xMTkxMjU1LDEuMTA5OTY3MSAwIDAgMCAwLjE1MTk0MywwLjg1MTAyOCAxLjExOTEyNTUsMS4xMDk5NjcxIDAgMCAwIDAuMDYzNjIsMC4wODgzMiBsIDQuMDUwOCw1LjAzNjU1NSBhIDEuMTE5MTI1NSwxLjEwOTk2NzEgMCAwIDAgMC44NzQ5NzksMC40MTc2NTQgbCA2LjQ5NjEwMTEsLTAuMDAxNSBhIDEuMTE5MTI1NSwxLjEwOTk2NzEgMCAwIDAgMC44NzQ5Nzg4LC0wLjQxNjkwNiBMIDEuMzgxODg3MiwxNS4xNDk0NTMgQSAxLjExOTEyNTUsMS4xMDk5NjcxIDAgMCAwIDEuNTk4MTk4NiwxNC4yMTAxMDQgTCAwLjE1MjEyNjU3LDcuOTI4ODE1NCBBIDEuMTE5MTI1NSwxLjEwOTk2NzEgMCAwIDAgLTAuNDUzMzk3OTQsNy4xNzU4Mzk2IEwgLTYuMzA2NTQ5Niw0LjM4MDk5NzEgQSAxLjExOTEyNTUsMS4xMDk5NjcxIDAgMCAwIC02Ljg0OTIwMTUsNC4yNzI0NjY4IFoiIHN0eWxlPSJmaWxsOiMzMjZjZTU7ZmlsbC1vcGFjaXR5OjE7c3Ryb2tlOm5vbmU7c3Ryb2tlLXdpZHRoOjA7c3Ryb2tlLW1pdGVybGltaXQ6NDtzdHJva2UtZGFzaGFycmF5Om5vbmU7c3Ryb2tlLW9wYWNpdHk6MSIvPiYjeGE7ICAgICAgPHBhdGggaWQ9InBhdGgzMDU0LTItOSIgZD0iTSAtNi44NTIzNDM1LDMuODE3NjM3MiBBIDEuMTgxNDMwNCwxLjE3MTc2MiAwIDAgMCAtNy4zMDQ0Mjg0LDMuOTMyOTA0IGwgLTYuMTc4NzQyNiwyLjk1MTI3NTggYSAxLjE4MTQzMDQsMS4xNzE3NjIgMCAwIDAgLTAuNjM5MjA2LDAuNzk0ODkxIGwgLTEuNTIzOTE1LDYuNjMwODI4MiBhIDEuMTgxNDMwNCwxLjE3MTc2MiAwIDAgMCAwLjE2MDE3NSwwLjg5ODkzIDEuMTgxNDMwNCwxLjE3MTc2MiAwIDAgMCAwLjA2NzM2LDAuMDkyODEgbCA0LjI3NjA5NCw1LjMxNzIzNiBhIDEuMTgxNDMwNCwxLjE3MTc2MiAwIDAgMCAwLjkyMzYzLDAuNDQwODU4IGwgNi44NTc2MTg4LC0wLjAwMTUgYSAxLjE4MTQzMDQsMS4xNzE3NjIgMCAwIDAgMC45MjM2MzA4LC0wLjQ0MDExIGwgNC4yNzQ1OTY2LC01LjMxNzk4NSBhIDEuMTgxNDMwNCwxLjE3MTc2MiAwIDAgMCAwLjIyODI4OCwtMC45OTA5OTMgTCAwLjUzODk0NDM5LDcuNjc3NTczOCBBIDEuMTgxNDMwNCwxLjE3MTc2MiAwIDAgMCAtMC4xMDAyNjEwMSw2Ljg4MzQzMTMgTCAtNi4yNzkwMDM3LDMuOTMyMTU1NSBBIDEuMTgxNDMwNCwxLjE3MTc2MiAwIDAgMCAtNi44NTIzNDM1LDMuODE3NjM3MiBaIG0gMC4wMDI5OSwwLjQ1NTA3ODkgYSAxLjExOTEyNTUsMS4xMDk5NjcxIDAgMCAxIDAuNTQyNjUxNywwLjEwODUzMDMgbCA1Ljg1MzE1MTY5LDIuNzk0ODQyNSBBIDEuMTE5MTI1NSwxLjEwOTk2NzEgMCAwIDEgMC4xNTE5NzgxMSw3LjkyOTA2NDggTCAxLjU5ODA1MSwxNC4yMTAzNSBhIDEuMTE5MTI1NSwxLjEwOTk2NzEgMCAwIDEgLTAuMjE2MzEyMywwLjkzOTM0OCBsIC00LjA0OTMwMzIsNS4wMzczMDQgYSAxLjExOTEyNTUsMS4xMDk5NjcxIDAgMCAxIC0wLjg3NDk3ODksMC40MTY5MDYgbCAtNi40OTYxMDA2LDAuMDAxNSBhIDEuMTE5MTI1NSwxLjEwOTk2NzEgMCAwIDEgLTAuODc0OTc5LC0wLjQxNzY1MiBsIC00LjA1MDgsLTUuMDM2NTU0IGEgMS4xMTkxMjU1LDEuMTA5OTY3MSAwIDAgMSAtMC4wNjM2MiwtMC4wODgzMiAxLjExOTEyNTUsMS4xMDk5NjcxIDAgMCAxIC0wLjE1MTk0MiwtMC44NTEwMjggbCAxLjQ0MzgyNywtNi4yODEyODUzIGEgMS4xMTkxMjU1LDEuMTA5OTY3MSAwIDAgMSAwLjYwNTUyNCwtMC43NTI5NzU4IGwgNS44NTI0MDM2LC0yLjc5NjMzOTUgYSAxLjExOTEyNTUsMS4xMDk5NjcxIDAgMCAxIDAuNDI4ODgxOSwtMC4xMDg1MzAzIHoiIHN0eWxlPSJjb2xvcjojMDAwMDAwO2ZvbnQtc3R5bGU6bm9ybWFsO2ZvbnQtdmFyaWFudDpub3JtYWw7Zm9udC13ZWlnaHQ6bm9ybWFsO2ZvbnQtc3RyZXRjaDpub3JtYWw7Zm9udC1zaXplOm1lZGl1bTtsaW5lLWhlaWdodDpub3JtYWw7Zm9udC1mYW1pbHk6U2FuczstaW5rc2NhcGUtZm9udC1zcGVjaWZpY2F0aW9uOlNhbnM7dGV4dC1pbmRlbnQ6MDt0ZXh0LWFsaWduOnN0YXJ0O3RleHQtZGVjb3JhdGlvbjpub25lO3RleHQtZGVjb3JhdGlvbi1saW5lOm5vbmU7bGV0dGVyLXNwYWNpbmc6bm9ybWFsO3dvcmQtc3BhY2luZzpub3JtYWw7dGV4dC10cmFuc2Zvcm06bm9uZTt3cml0aW5nLW1vZGU6bHItdGI7ZGlyZWN0aW9uOmx0cjtiYXNlbGluZS1zaGlmdDpiYXNlbGluZTt0ZXh0LWFuY2hvcjpzdGFydDtkaXNwbGF5OmlubGluZTtvdmVyZmxvdzp2aXNpYmxlO3Zpc2liaWxpdHk6dmlzaWJsZTtmaWxsOiNmZmZmZmY7ZmlsbC1vcGFjaXR5OjE7ZmlsbC1ydWxlOm5vbnplcm87c3Ryb2tlOm5vbmU7c3Ryb2tlLXdpZHRoOjA7c3Ryb2tlLW1pdGVybGltaXQ6NDtzdHJva2UtZGFzaGFycmF5Om5vbmU7bWFya2VyOm5vbmU7ZW5hYmxlLWJhY2tncm91bmQ6YWNjdW11bGF0ZSIgaW5rc2NhcGU6Y29ubmVjdG9yLWN1cnZhdHVyZT0iMCIvPiYjeGE7ICAgIDwvZz4mI3hhOyAgICA8dGV4dCBpZD0idGV4dDIwNjYiIHk9IjE2LjgxMTc3NSIgeD0iOS45Nzk5NzY3IiBzdHlsZT0iZm9udC1zdHlsZTpub3JtYWw7Zm9udC13ZWlnaHQ6bm9ybWFsO2ZvbnQtc2l6ZToxMC41ODMzMzMwMnB4O2xpbmUtaGVpZ2h0OjYuNjE0NTgzNDlweDtmb250LWZhbWlseTpTYW5zO2xldHRlci1zcGFjaW5nOjBweDt3b3JkLXNwYWNpbmc6MHB4O2ZpbGw6I2ZmZmZmZjtmaWxsLW9wYWNpdHk6MTtzdHJva2U6bm9uZTtzdHJva2Utd2lkdGg6MC4yNjQ1ODMzMnB4O3N0cm9rZS1saW5lY2FwOmJ1dHQ7c3Ryb2tlLWxpbmVqb2luOm1pdGVyO3N0cm9rZS1vcGFjaXR5OjEiIHhtbDpzcGFjZT0icHJlc2VydmUiPjx0c3BhbiBzdHlsZT0iZm9udC1zdHlsZTpub3JtYWw7Zm9udC12YXJpYW50Om5vcm1hbDtmb250LXdlaWdodDpub3JtYWw7Zm9udC1zdHJldGNoOm5vcm1hbDtmb250LXNpemU6Mi44MjIyMjIyM3B4O2ZvbnQtZmFtaWx5OkFyaWFsOy1pbmtzY2FwZS1mb250LXNwZWNpZmljYXRpb246J0FyaWFsLCBOb3JtYWwnO3RleHQtYWxpZ246Y2VudGVyO3dyaXRpbmctbW9kZTpsci10Yjt0ZXh0LWFuY2hvcjptaWRkbGU7ZmlsbDojZmZmZmZmO2ZpbGwtb3BhY2l0eToxO3N0cm9rZS13aWR0aDowLjI2NDU4MzMycHgiIHk9IjE2LjgxMTc3NSIgeD0iOS45Nzk5NzY3IiBpZD0idHNwYW4yMDY0IiBzb2RpcG9kaTpyb2xlPSJsaW5lIj5zdmM8L3RzcGFuPjwvdGV4dD4mI3hhOyAgICA8ZyBpZD0iZzMzNDUiIHRyYW5zZm9ybT0idHJhbnNsYXRlKDAuMDkyMzg4MDEsMCkiPiYjeGE7ICAgICAgPHBhdGggc3R5bGU9ImZpbGw6I2ZmZmZmZjtmaWxsLXJ1bGU6ZXZlbm9kZDtzdHJva2U6bm9uZTtzdHJva2Utd2lkdGg6MC4yNjQ1ODMzMjtzdHJva2UtbGluZWNhcDpzcXVhcmU7c3Ryb2tlLW1pdGVybGltaXQ6MTAiIGlua3NjYXBlOmNvbm5lY3Rvci1jdXJ2YXR1cmU9IjAiIGQ9Im0gNC40OTQ5ODk2LDExLjI2MDgyNiAyLjkwODMzMTEsMCAwLDIuMDQxNjY3IC0yLjkwODMzMTEsMCB6IiBpZD0icGF0aDk2NCIvPiYjeGE7ICAgICAgPHBhdGggc3R5bGU9ImZpbGw6I2ZmZmZmZjtmaWxsLXJ1bGU6ZXZlbm9kZDtzdHJva2U6bm9uZTtzdHJva2Utd2lkdGg6MC4yNjQ1ODMzMjtzdHJva2UtbGluZWNhcDpzcXVhcmU7c3Ryb2tlLW1pdGVybGltaXQ6MTAiIGlua3NjYXBlOmNvbm5lY3Rvci1jdXJ2YXR1cmU9IjAiIGQ9Im0gOC40NjM3NDA3LDExLjI2MDgyNiAyLjkwODMzMDMsMCAwLDIuMDQxNjY3IC0yLjkwODMzMDMsMCB6IiBpZD0icGF0aDk2NiIvPiYjeGE7ICAgICAgPHBhdGggc3R5bGU9ImZpbGw6I2ZmZmZmZjtmaWxsLXJ1bGU6ZXZlbm9kZDtzdHJva2U6bm9uZTtzdHJva2Utd2lkdGg6MC4yNjQ1ODMzMjtzdHJva2UtbGluZWNhcDpzcXVhcmU7c3Ryb2tlLW1pdGVybGltaXQ6MTAiIGlua3NjYXBlOmNvbm5lY3Rvci1jdXJ2YXR1cmU9IjAiIGQ9Im0gMTIuNDMyNDkxLDExLjI2MDgyNiAyLjkwODMzLDAgMCwyLjA0MTY2NyAtMi45MDgzMywwIHoiIGlkPSJwYXRoOTY4Ii8+JiN4YTsgICAgICA8cGF0aCBzdHlsZT0iZmlsbDojZmZmZmZmO2ZpbGwtcnVsZTpldmVub2RkO3N0cm9rZTpub25lO3N0cm9rZS13aWR0aDowLjI2NDU4MzMyO3N0cm9rZS1saW5lY2FwOnNxdWFyZTtzdHJva2UtbWl0ZXJsaW1pdDoxMCIgaW5rc2NhcGU6Y29ubmVjdG9yLWN1cnZhdHVyZT0iMCIgZD0ibSA3LjYxMzc0MDcsNS4yMDgyOTIxIDQuNjA4MzMwMywwIDAsMi4wNDE2NjcgLTQuNjA4MzMwMywwIHoiIGlkPSJwYXRoOTcwIi8+JiN4YTsgICAgICA8cGF0aCBzdHlsZT0iZmlsbDpub25lO2ZpbGwtcnVsZTpldmVub2RkO3N0cm9rZTojZmZmZmZmO3N0cm9rZS13aWR0aDowLjUyOTE2NjY0O3N0cm9rZS1saW5lY2FwOmJ1dHQ7c3Ryb2tlLWxpbmVqb2luOnJvdW5kO3N0cm9rZS1taXRlcmxpbWl0OjEwO3N0cm9rZS1vcGFjaXR5OjEiIGlua3NjYXBlOmNvbm5lY3Rvci1jdXJ2YXR1cmU9IjAiIGQ9Im0gOS45MTc5MDA1LDcuMjQ5OTYwMSAwLDIuMDA1NDQ5IC0zLjk2NjY3MSwwIDAsMi4wMDI4ODU5IiBpZD0icGF0aDk3OCIvPiYjeGE7ICAgICAgPHBhdGggc3R5bGU9ImZpbGw6bm9uZTtmaWxsLXJ1bGU6ZXZlbm9kZDtzdHJva2U6I2ZmZmZmZjtzdHJva2Utd2lkdGg6MC41Mjg5OTk5ODtzdHJva2UtbGluZWNhcDpidXR0O3N0cm9rZS1saW5lam9pbjpyb3VuZDtzdHJva2UtbWl0ZXJsaW1pdDoxMDtzdHJva2UtZGFzaGFycmF5Om5vbmU7c3Ryb2tlLW9wYWNpdHk6MSIgaW5rc2NhcGU6Y29ubmVjdG9yLWN1cnZhdHVyZT0iMCIgZD0ibSA5LjkxNzkwMDUsNy4yNDk5NjAxIDAsMi4wMDU0NDkgMy45NjY2NzA1LDAgMCwyLjAwMjg4NTkiIGlkPSJwYXRoOTg2Ii8+JiN4YTsgICAgICA8cGF0aCBzdHlsZT0iZmlsbDpub25lO2ZpbGwtcnVsZTpldmVub2RkO3N0cm9rZTojZmZmZmZmO3N0cm9rZS13aWR0aDowLjUyOTE2NjY0O3N0cm9rZS1saW5lY2FwOmJ1dHQ7c3Ryb2tlLWxpbmVqb2luOnJvdW5kO3N0cm9rZS1taXRlcmxpbWl0OjEwO3N0cm9rZS1vcGFjaXR5OjEiIGlua3NjYXBlOmNvbm5lY3Rvci1jdXJ2YXR1cmU9IjAiIGQ9Im0gOS45MDk1NTM4LDcuMjUxMjI1MSAwLDIuMDA1NDQ5IDAuMDE2NywwIDAsMi4wMDI4ODU5IiBpZD0icGF0aDk4MiIvPiYjeGE7ICAgIDwvZz4mI3hhOyAgPC9nPiYjeGE7PC9zdmc+;" vertex="1" parent="1">
          <mxGeometry x="480" y="370" width="80" height="80" as="geometry" />
        </mxCell>
        <mxCell id="9iCOq9ahbUTK9QBbnLyf-18" style="edgeStyle=orthogonalEdgeStyle;rounded=0;orthogonalLoop=1;jettySize=auto;html=1;exitX=1;exitY=0.5;exitDx=0;exitDy=0;entryX=0;entryY=0.5;entryDx=0;entryDy=0;" edge="1" parent="1" source="9iCOq9ahbUTK9QBbnLyf-16" target="9iCOq9ahbUTK9QBbnLyf-1">
          <mxGeometry relative="1" as="geometry" />
        </mxCell>
        <mxCell id="9iCOq9ahbUTK9QBbnLyf-16" value="Ingress Controller" style="rounded=0;whiteSpace=wrap;html=1;" vertex="1" parent="1">
          <mxGeometry x="170" y="325" width="80" height="30" as="geometry" />
        </mxCell>
        <mxCell id="9iCOq9ahbUTK9QBbnLyf-24" value="" style="group" vertex="1" connectable="0" parent="1">
          <mxGeometry x="270" y="140" width="130" height="80" as="geometry" />
        </mxCell>
        <mxCell id="9iCOq9ahbUTK9QBbnLyf-13" value="" style="shape=image;verticalLabelPosition=bottom;labelBackgroundColor=default;verticalAlign=top;aspect=fixed;imageAspect=0;image=https://brojonat.com/img/K8S-logo.png;" vertex="1" parent="9iCOq9ahbUTK9QBbnLyf-24">
          <mxGeometry width="80" height="80" as="geometry" />
        </mxCell>
        <mxCell id="9iCOq9ahbUTK9QBbnLyf-23" value="Cluster" style="text;html=1;align=center;verticalAlign=middle;resizable=0;points=[];autosize=1;strokeColor=none;fillColor=none;" vertex="1" parent="9iCOq9ahbUTK9QBbnLyf-24">
          <mxGeometry x="70" y="40" width="60" height="30" as="geometry" />
        </mxCell>
        <mxCell id="9iCOq9ahbUTK9QBbnLyf-25" value="" style="shape=image;verticalLabelPosition=bottom;labelBackgroundColor=default;verticalAlign=top;aspect=fixed;imageAspect=0;image=data:image/png,iVBORw0KGgoAAAANSUhEUgAAAUsAAAD9CAYAAAA1U1VCAAAAAXNSR0IArs4c6QAAAARnQU1BAACxjwv8YQUAAAAJcEhZcwAADsMAAA7DAcdvqGQAAG0ZSURBVHhe7Z0HYBRFH8XfteQuPSEECBBC7006UkREVLAXbHyKvWHDir2LXcTeu9hABQsISkd6752EhPSeK7m7b97sbThCIBdIQgLz02Hb7MzsZufdf7rBK4BCoVD4oCRQFAziPx1HiQdJOQ5sS7dje0YxdmbasTfHibQCD7KKSpBd5EShowR2pxsutwdujwfeEhcMIgiTJQgWkwm2IBPCrBZE2iyICTEhLtSEZjFBaF7PipaxNrSqb0N8ZBCCzYxXi5spkUcM6DijxFKhUEjKSoHL7cW+XCdW7yvE6qRCrEu1Y09uCfbl2JGZb5fC6JUiRifupcjKMMqRFOFPiq+ffyE+UkDrhVvRONqKZlFmtI+zomvjUHQRrrEQTouJfg9wPEVTiaVCcZKjKYBuTQKFTg82pRZh4c58LN1biA37HdiVUYicIpfwYBL+hdXodcsby0rXkcSkXL8UUaNJbIyAx42oEAsSY0PRIS4YfRPD0L9FBNoKAbVZjKXp47/HQzOVWCoUJzHM/roIFQmRpBU5a3MuFgih3JBajNRcO4SBCa8oVot/pD9dMKpCOHTNKw1XiKbBaITJ4EV8dAg6NrRhYItwDG0TiQ4NQxASdEA0a9rKPCqx1G9hYt1uN7KysrBmzRps27YN+/fvR0FBAVwu8Svko7brsf9Lt1gsCA0NRVxcHFq1aoUOHTqgQYMGMJvNBz23QlGXOZAlvXCUeGU95B8bcvDnxhys2VeEjHyH+NDFZWHt8XOn/5rIxYxSjw9Gs9xpEGlFl/gQDGsbibM7RKNlrNVXr6lRU/mx0mJJ77rLyMjAP//8g/nz52P16tXYu3evFM7i4mIpopUMulZAUbRarYiJiUGTJk3QsWNH9O/fH6eddpo8NopfPf5xlGAq6ioy/4otv+D0Ahf+EgL5y7ps/Le7AMnZRdoVIZI6xyMXH5S7RDGdqWgsLM2+zcJwXudojBCiGR1CA4ZiSVf9+bFSYilfsnAOhwPLly/Ht99+i7lz52L79u2w2+2lfk4E9JcfHByMZs2a4dRTT8VVV12F3r17IyQkRAmmok6i5WHA4fZgQ0oRvl+VhekbcrE5NR9uj7hwnEWyLGVF02Q0oG3DcFzQOQqXdYtBm7gQBJm0Oszqzo8Bi6X2kr2yiP3rr7/i7bffltYkhbNsEAEGWWsp+9J5HBQUhM6dO+Pmm2/GBRdcgOjoaHleCaaiLuCfJzMLS/D7hix8sTQTy/cWIq/IAQ+L277rtTX3Mn1Mm1GIZmRoMHonhGJM7/oY3j4KkTZRZPdRXXnS9KTAt39Y/IVy6tSpeOmll7Bq1SqUlJT4fNR9gTwc+otntUJKSgq2bNmCyMhING/eXBbXiRJMRW3GP2um5bvw4aI0vLcgHSt258LuKtEab+oS4oEcJW7syrRjY7oLJcIibhVrRWgwi+ukelrLKxRLXSjZYPPvv//i6aefxsaNG31XT1yRLA+KIutkt27dKsWSxXM2COnXFIrahp49ud2dZcek+fvx2dIs7EwvECVurftPnczBTLdw6YUubMkoQZ69BK3rWxFpNZfmxarOkkbf9ogwUampqXjjjTewfv16ec7DHvr8C5xE8JnJpk2bMGnSJGzevLn0nEJR29Czp0fsbEkvxoRZ+/DZkkwkZxXAywZY+tG81DlK0y6eY29mofgByMTLs/fJVn1dl6pangISS7Zus/jNVm+2Bp/MAsFn5ztYvHgxfvnlF2RmZvquKBS1B3+h3Ly/SArl96uykZ5bVCqUJwJUIq+7BJl5xZi8MhuvzE7BnmyHfG5SlYJZoVjqVuUXX3xR2phzslmU/ujP73Q68fPPP8u+pazPVChqC1r+9ErBoKX12j8pmLImG7mFdqEuJ45Q6uiCmVNYjB9WZ+PlWcnYl+MsfQ9VpVcViiUFctGiRVi3bp2sC6iqiOsyfAd8F6y7pIWZl5fnu6JQ1A6YTZNzHHh7bip+XpuD/CJh6AihrLEyIRPg0wpWHZbnJH7+jgVNMN3IEz8I363KwVtz9yGj0FUVQZdSoVgWFRXhr7/+kpYUUWJ54B2w0Yv9TNk5X6GoDfDb5OeZmu/EBwv34+uVOcgrskuhrLGc6x9RiQdeTrhRjuO1UqogcQyNXaByhYX56bIcfLAgVc6IxPdRFboVkGW5cuVK1dpbBv3lb9iwQVmWilqBLpS5xSX4dW0WPl2aiZyC4uNTRykitBgNSIwNRo9mYThFOG71/Z6JYWgaEwRzFesKn5PPm51fhPcXZ+L39VkopDiLC8eqlxV2St+zZw+6du2KnJycYy6G16ZifFU9S0REBKZPn44BAwb4rigUNY/2KXvltGpztubinqm7sDG1SJhaJeDAnBrH7UGDMDOuHxCHER2ihGWrVV0R5hujyYDvV2bhs4XpyHEIK9MYUFtzwHBmN6/Rgs7xIZh0SXP0bhYOi0mLw5eMSlNhCtn6W1hY6Ds6NviS+ML08dU1jX/cVSXarKZQDTyK449mVe7Pd+Gd+SnYtN8OA+soa6ySsgwiLZyLsllUELrG29Cl0cGua6MQOV+lnA+jGsRcaLV4/hKsS7HjrTn7kJqnN/gcPQHJuT6D0NFGRnFi522Os2YYutPFq7rxF0jdMS0cwsjzRwPDIBzFpO8rFMcDfn50eXY3pqzJxKxtukUpTta8TXIQ2nBzr6ye5EgbzdEI0/JhtSGeWz6/x4U/txTK98L3o7+ro6FalYpCRNe+fXtMmDAB7777Lp544gmcd955aNy4sXxZtFx10SxPuPRrR3J6PP7o5+gYB+Nq1KgRzj33XDz11FN477338OKLL6JLly7l3q9Q1AW0jK+J0Kb9RXh/fioK7Wz5Ft+89HF8YbZi3jKKrVFutX15noomdsS/1QKfn++hoNiJDxbsl+/H46WpTaGWXipFtYmlLkAcP92nTx+MGTMGo0aNwm233YZnn30Wb731Fu6880506tRJCh7FTL5UsW8ymeSW6ILKbXnO/5r/vbr4cdu2bVvcfvvtePPNN2Xct956q0zLtddeK6df4yxCul+Fom7Bbx/IKnLhq6Vp2JzhksXP2iCUhJYlJw9msZizGmlOO5aWH/Ouz291wLD5Pvhe+H4KHJp1qV2pHBU28OzatUuOg64suvBxEt2HH34Yd9xxR6kVSVjPx9EvnN7tjz/+wE8//SSHERL6YbJYdI+KipKODSmclFcfi82qAdYXsiWajU907N6k30tatGiBCy+8ECNGjEC7du3kHJX6/fRDvx9++KGcGGT37t2lwltZOKcn57tUKGoSfqv8XJ1Cef7enItrv9qKbCGaR91NSP/2fXn0sATiT5S1m0ZZ8MS5TXBNr1iRJt95HwZhXr41bz9e+D0JGUUivb7Gl+qAqTQYTIgOteDH69uif/MImEX8TL6uR4FQ7WLZsmVLTJw4EcOGDZN/XN1iJDzWRXPFihVSMDnemjOU0xpMSEiQRWcKJUWOE/PqD8d7WV9I0eRsSJyhnS33nBWIncV570UXXSTnn6xXr5683//F6MI9e/ZsPProo1i2bJkMk+crixJLxfGA36v4Xy4qdt+UHZi8Ohcmj0NackcFAyMiX0iB0Y4Ogj4YL2H+KVdqxEmvEPAomxnndYlGv+ZhsjVcevZFYRRiNWtrHn5fm40CpzjJsnk1wvmI3KZgjO4RhdcvbolokTbKgb8mVES1iaUuiixmc6gk6wYZlX7eP1rusz9nWlqatBTDw8Ols9lssiGG99BP2aTKP5ZwFDhalRzDnp+fL8WTRWsuB1F2GjV9q4slRyaNGzcOs2bNKj1fWZRYKmoaLT/QqvRi9pYcXP3FFuQW06o8hrpKPX9R2EoOEwqzj9ln8LClpjxv9GMyyIl6I4ULPYwe5Yt780RcWo4Tng7j74joaWa+9tcHXz7X4RHX9omyWTDlxvbomxheaeuyWi1L0r17d0yePFlamKRswvyj1/e51f0F+iAV3Xu4eHfu3CnrTtlXkn7085VBiaWipuF3yk91f74Tj0/fg4+XZMHo1hYXO2qYd8SGqykObS2MFSGK2oQU4qzY0hpMKyzBvC15okToxcC2kYiPMKNE7Gv5S/gRW7vLg/k7CrA904GBLcLQqYHtkHxFf8v2cQXJAhRTmHn/wVm0YsqEySAOOiXTdAD2vfSYbLi9fz08PTLBN50bvQUWcY2I5XfffSeL1ozKvxjuz5GSUdHDHM29umW5Y8cOKZasNyUVvI5yUWKpqEn0b5SNJMv35uOSjzYiOdclMvMxjv1m/hSb87tE4fkRTRDJNW5oZQoVY5SsZ1ydUoRXpyXB4XTjwfMTcErTUHiFhclrmh8gp9iNV2YkY8bmPNw3PB6jusVo1mqpGgpxFcr14eJ0vDkzBVnC/1HVWep5VYTN+Gnperml0/HL/4zBazShaaQFf9zWCW0bhJR6DUQwjyKFgcMEsHicm5vrO3N46PdwriLKu0d3R4IfHYvtXD8oEP8KRW2B2pPvKMGcbXlIKWRGPobidxlYPA0LMiFCOG7Dg8U22IhI4SKCjKJ4TSvNgHCxH23lNc1PuPQj7hNbjpZhbrIJUeQ9oSKcUHE+1LcfLpyNfoSno0q3yLsyuwordnDLcLx6QQJuPLUBYkO5IqTmRaILqoB7Rq8HyQUG/LM1T1rA7O8ZKNUulhz9w6IuORqrrbpho1B2drYSSkWdgl9rTnEJ/tqQpRltQgqqJHf5soEvSBk2862edcvLJbofmQ6fX90/4T6L8/p5vcuQFokwUqSvSiDukyIrxK51AyvuHtIQV/WIwcNnxeMx4RqEmoSV7fPrh3aK6fTit7UZcsx4ZfJ9tYolYUv30qVLxbs5fBH8eKC/JK4llJSUJNNXG8VcoTgUg+yEviPdjqV78kV5nEP5fJeOFRGODEv7x+fIgX39jKTUHym7Ffh7PsgvEfvinP+ZwBD3eIQFLCzTG/vHoV9iGKxmzfK9uk993DyoAWIsfiIs49WQeyVOLNyRJ5fZ0H5oAhPMalcvdtvp1auXFKfaJEZMC9PUrVs3uR44Udaloi7Az7TQ6cHypCIUuC1VWgQnzAUyLwin5wlKT+k5eUbuynP+frT/dR+6H3m61G/pVf1iJZG3CKuyjxDJ09tGwCaEUeZn8RLYi/q6XrHonBAGM/WmjObw0GjwoMBjwX+7CuFgfWuASagWsdRfCpeLvfTSSzF8+PBScaotMC1M05AhQ3D55ZfL4Zf6eYWitlPgKBGZPU8qBz/ZCsWyHOEoD/n5+8Jk44e21Y6lEHKr7QrHE9o5fRij7lf8L6EfeVx6Xd+Xd8s06X4Pi3/a9V0R0LB2EWgSGSQOZKCytZ4t840iLbi0ezRigkVxXA/9wO0yPWyJWrAjF8VCdAOlWlrD+TLYCZzTlnGEjH5/bRMi/dFZDH/ooYfkMhH60hmVQbWGK2oSfp8bUopw0UcbsCWzBEaP01ecPAzyms9DRZ+2yKLxQoA6NbIiSBRzWb+nCY5m7OTa3di0rwjsjty+cQiiQ0xyCKO/H/b93JxaLGdAatvQhqZRQb5wNJgEiuXOLAe27rfDyf6a5WkDPfJ06SXfjog8KsSMT65ojiGtw0t1hf8y63K2o6RcJ674fDtWJRcKu9sXiO92CrbHGIR2sWb8eVtnJMQEB6RNVS6WjJR1kw0bNsQDDzwgx4LzmOcDSVBNwkenYzcidm96/vnn5QggHlfwWg5CiaWiJnG5PfhrQzYu+2QjilmM5Hfsu1Yu8qLmwyyEJEi48vyzZZhCRzGRrdnMrv4eKTLi2EVxE1jMRum3bGA85LyaFFEKF1vXD0GcohVIf5wkmOlifKVBiR3e5RbPxjRp2dHnx+VGh/gQfCzEskNDq7ymawv3mXeDLUbcPXUPvlucjiJxzuO7rv0rjsUe+5H+IcSyX4sDc10eiSoVSz3BFEcOM/zyyy/l+GxS24RSR398Wpd33323XLFRH8UTqGAqsVTUJEVON96fn4JxU3eXTppR0ZdqEMIVZjZgRNdojOkdC0eJz9LjP+JmZs81+4rxyj+pUoDuHNQAYUFG2ZeT15gVKGjbMh34fN5+uETxdcxpDdE+zirDoh7SDzUn3+HBl/9l4L/dBRjdJxZntImQwqlFRrxSQH9Zl4Nvl2bigi7ROF+4YJE+emN8zIJWEf9iEcYn89KwW1iK7IvJELwONwYIi/KdUYlIjA6WYbMIrsPGrwirCZ8tycDj3+9CirCG/TEykeJZYAnCe6Oa46qecQgJ4oDII1PldZYURU54wc7oiYmJvrO1n/j4eNnYExkZWWuFXaEgbJTYtL+YuV7XugqhP4v4JyEqGINbRWCwsKbYP/E04bil6yKsNVqd9UPNGNBcXKM/XvNtB7WMQPemoYgRQhQthKx7kxAMLOOH95zaPAzx4WYEi7DaxdlEHLwWIa7xOuPifgRax1qFVQk0jwnCgBZhPn9+8Ylt50Y2hMoZgjW0PSG2ImwW5b084cuvpcaa2FJAuzW2oX+HKJzbPQZX9quPK/rWx4hu0eiUECo73KPEiPW7CuAMsN6yWsSSgtO5c2dpYeojZWorTBstSG7btGkjW++5X5vTrDi5YfGV3V5kySfAz1QTVHpmtxtRRBb3sh6RW93xmP7oKDbS8ZpvK+Mr9SPyDTVGv+7nVwtHS1jZOEr9CcdrRMbnd073I+Pi1g/tyIAiIXAl1BZfavyhqDmFtdtSiPFblyXioytbYOIlzTDx0mb4ROxPva4V/ri5Dd69ohlaNeDcE4G9xCoXS0LLsrKNQrUBtohzAg/+gcr+kRSK2gKLmZxpSBMT38kKkHLg+4faQFtAGgXyP57Vt759n8Gg+dHP6f7kzoHjcvzoyGN5Tr+uXdX3/a74/HLPt+UxjzQvEvm4QrUyCktKZz73XTqQZ8UJ7nGUUYiwgIPFA5vFSYtwwWYjYsPM6Cgs1qt6xeCKnjFyZFEgVKlY8gGZYC7XQAtNP1cXYDo5b2bZWYoUitoG6xGziiiWgc9bqftj/uT9rBOUVqC0BHmsbemPdqE81p04KS0/uc+rmkf9vL8fGa70oyHPy3Pc6lajZnFqliUF3xeG77r4X9vKfV6X3jS4FUXwlHwXknJcMj5Nd7TLh+Rb/T4dcUy/vE+Y6CKosh4OT5WKJR+ajsVvTq1G6oLo6GlkmjnTuv4cCkVthAJSwEYLISaHfKY8Uc63yy+creayNbx0jLZwwSbf1girb9QLl6e1iXM26U8f021CsMUEs7DMaLGJYGRrOFud/f1YGY64l3WRDMti1sI6EJcWH/0wLPphPSnvs8lrB8KyiPgYB+Pyh5Nm2Ivc2JRaDId4B/JyGT86zNplnYZ4d0Ix2bPgEEE9DFUqlkQXnsq2KB9P9DRWtsuQQnE84BfKSSC4dyDzHwqL2xQaNv4K+0V2n0kvcGFtUiFW7SvCauFWJYutcNzuyHBIqy7X4cbalGKsThLn9wm/vutrxT6HWBaIuAuFecj9tbzm88Nw1gi3XtybKcSMbdDJ2U55jtekE351f6m5TtmFJzW/BOv2ifjEOaZLhiX8rUsuxO4shxBE7Rn05+A8mXwJf23Mxb5cl6Z1ftmWGlSeKwvrPNl9qJxL5VKlXYdoURJO+PvRRx+hZ8+eUoBordVmdGHfsGEDbrrpJvz333/yWD9fEarrkKIm2ZVpR8snF0thEzLgrxP85de2vOg8+Ptl7gwRJh9nCyov07M/Y45QJnFZzh5UnoiwvpRdg3g/ZxliH8myMOoCEbdDWG2ctcjm15rtDxtp6C9UpInpKhsfD+0iTflCvA+ai1hcoMU5vFMUnhvZBIkxXDWWIkl3aFxlJY7p45lwqwkrxQ9C54QYYVVXrFFV3s+SgslWZS4OdsYZZ9QpsaRIjh07FitXrpQvuIJXU4oSS0VNIsXyCSGWYr88saRcNIsOwvmdo2Fl30VxTH/SIwWF/spBhlOBH6Jni/LEVCeQsCoVn88Pn4ddm9o2tKJzoxDZgBNINqUXmc1FIFYzECxEfPq6HDz8axL+GNsVTWO0toojUS1iyfVvuIriFVdcUafEkhMAc9QR1wHia1GWpaI2sluIZZun/pOWIPPcQRlYfLecTOLMDpH46uqWsi5QW//mgBzJXf0mv33ZZ9G3L33rx/JAoPvTNqWnJX73Er/dg/35cZCf8uLyndP96Ze4ZeMPR/9QvfwerRQ+sg6L7xxJRMcbtqY78OmSTHy6MA35wrLd9GQfNKtXsVhq5eYqhmvhcLVEUp5ZXBthOvft2yfX7yGBWpUKRU3DLMXGFspGeZ+pLp/2Eg/soshsZ5FYbHVnt/vOl9l3iP1SP/7XuPX353P6cakfv2PdzyH+/NxBfsqLy7ctG06xeB45BFI+a/nYRLE+zGqUW4oq62N/XJmF67/dhaFvb8LEmfuQIcIPEkXxQCWqysWSIsPZx7nCIvfrgljKX2eRVk4EzCV1lVAqajPMUmxZ5sw55WcvtlZrY7JpTLHTNZsTThgnnomPLR+9zPPToqQF+cXSDFzz+Xac/9EWDBHiOGjSJlz3xXZ8szgD+/JcKBEi6hWBsU41UIkSUVcdFBk6WpackCIlJaX0fG1FT1tGRoZMMy1L/TkUitoIW4OjQ0RhW2T2cvO5OCn7OvIbpgduhCKcyI7wedlvskhYnl8uz8RPSzPx97ocrNtbhMwCF+zivbnZPUq8N1nBZjAhRrxH2boeAFUqljpMPNfxXrx4sTyuzcKjC+OaNWtk1YH/y1coaiO0GBtGBImMVr5lKUqdsgjO4qe8fpJ8zrQqg8wmbNhfjH0ZdpSw8YeO5rV4EbxOx/wuX4l4f/FRweXPilQOVS6WuvikpqZixowZWsJqsfjoaVuwYAG2b99emn6ForbCzK3NwSiybzmfKgWhkHV7Lq/I4OXXa55I+OdXFtNnbc1HdoE2G5McPc48XlaDxEV2bm8eYz1+YknxYeKLioqwcOHCSvdZrEn0NK1fvx7z58+X6wUpoVTUdji+uV1cCLwebbjjQVldHHhFUbRYiGVucYlsCeYnfSJ/15rm0KoUJdo8l+wSlCMsa603qN9z+0RT+heHXrcbHRuFyPcZCFUulvofhQlit6MPPvhAilJt/WMxbd9//z1WrFgh00yUYCpqM2zAaF3fCgs06+lghBh4DbDb3UgV1hUbd/hV69/2iQbzKh2HgAZZjPhjUy72pBaJ98Ln5S9F+c/N98b317aBTetSFABVLpY6FCE29MyaNQtff/21/GO5hZLXFvS0cCmJqVOnylZwhaIuIMUyzoZGUcHwGjmXjj+UCVGyc7ixN9upnfEJyomG/kxSKIVVmSasyskrMpHpEsYZJ8iQTno5CJ7ie2sSHSx+dI6zWJaqvRBM9l187bXXMHPmTPErp81vSXe80ONnWtiZ/NVXX5XDHPVrJ+JHpTixoOERYTWjQ8MwGMwWWU93AEqlQQ4j3JJWLL5pcUQDy5cnTxT8n4W7tCrZAr5uj9+aO4d5XL4vgzkInePDECaHddaQWDIi3XGkDp0euf4HWrt2Le69915pxVGkeJ2WXU3+8SiEujXJNHD5iPvuu0+uaU6Op4ArFJWF45r7NI/Q9KBMNmLJs0CI5MZ0u5zzUTZg+PLkiQancmOf02W7C/HN4nSkcY5L/VEP98ziffGVndoyMqAx4TrHLJa6INJRjHQR1EVRt9Y2bdqE22+/HQ8++KBc70YfAqnfUx1ipQskt7qYs+/n+PHj5UJqq1evlmlTQqmoa9Ai6t00FBa3Xc7uUyoLPuF0CRHZK8SSQ/s46YT4zGUeOBFgniUsfnMKuBx7CSb8nYIt4lm1usrDw6t8XxZ3MfonhguxDFwCq8SypDDGxcXJpW/79++PBg0alIokr3FLl56ejldeeQXDhg2TRXNdNOl0f8cinv7363HrYVMk33nnHYwcORITJkyQ/UCZdvpTKOoS/GS5TG3rOCs6NgoFTMFyVIuEW+ZJscnKc2GxKJaKz19+57qry+jp54ZNV5z16CUhlHM35cLJS6XvoXzRlO/JZEXXxqFoWV/rNhToKzlmsaQQcXbxc889F3///Tdmz56NadOm4Y477kC7du3kdV0IdQHlRBUsAvfp0wfXXHMNvv32W1lvyEYWu90Ol4szIGt+A/nj6v54D+9lGAxr48aNconbG2+8UYo407Rq1aqD/CsUdQ/x7Yrvl6N4RnSqJ4TBpGmkdlEqCb/sDIcH/2zJQ1ZBiRAFf6EJUB1qCXp+LU2/z3Ei49f+3Y+vF6bLrkIVFb9L35F4Xxd2rS+tc75HLbSKOeZZh2id0XF1xHHjxmHMmDFSqNjB22Kx4KmnnsKcOXOkMOnipN/jL1Zc+4bxcOncrl274vzzz5erLRL6PRL6I7Coz7rIZcuWYdu2bdixY4ccp65D0SZVLZJq1iFFTaJ/75zke9HOPJz7/jrk2cWBVwiG9KD9w5nRW0UGYcIlzTCyQyQKhHiy36XIUdJVkK1qBWXlSTv0ylnWP1mcjpf+SMa+IlES5XPxmqaG/OcQtEtGRFqN+OeurugcH1pqkVekMeSYLUs+DF1ycjKeeOIJufY2ofBRtGg5Dhw4UPrRxUq/hwnUi8kUNQ45/O2337Bu3TpER0dLv5WBq0ru3btXCibrIxkmw2YcujhXtVAqFDWNnrGZ0RPrWXFGO2FdmoPlpBkS35basa/AhSlrsuV4aV0YNA4WodoINcIf7dgr8rMBHy1MwwQKZaEQSj5XqdeDHvIg+H68ZivO6VgPTaKCS30GIpTkmMWS6A9VWFiIyZMnyyI2Fy27/PLLZfH3sssuKxU/f8EkFC/u87zZbEbfvn3lBLzNmjWT5wN5EN1Po0aNcN111+Hss8+WYVEkGb5eh6lQnGjEhppx+SmxMHtLfF1m/BD5QhhdWCSK4jO35Ms1bmiNiswgL9fWPMF0lU0bi8uc8ILJf3teGp7/PUkIpXhmfwWrQCv4foLgwv/6NECEtfJz7FaJWBL9AVln+O+//+Ldd9+VC4AtX75cWooUMQoYhe1wAkiB5XrjvXr1kse6sAaCHmbHjh3Ru3dvWQWgrEjFiYqWj7Shjz0SQjG4ZTg8piCUSoAvP1By9ua58OniNLn+Djtg++eK2iSY5Ykkj9g9iM+ZLsTxsWlJouidJOtj5QQZOofRFB2+F76foa3D0b1JqGzY4S2H06LyqDKxJLoVl52dLYvCbLQ555xzZNH80ksvxXnnnSdFTC8ac6s7JprL57Zq1Qo2m+2o/4gUaNZ7NmzYUIZZmZehUNRFGoQH4Yb+DWExsJGjzPcuDtlKvHR7Ad5fmA5jOQbV8RbM8kSS0Jrk07DD+aJdBbjpm534aH4asku8wqIUV/RbAsjjfC98P3cMaoxIm9l3tnJUqVj6w4l0v/rqK9lSThGleLIe8+mnn5Zr9NCK1B3FsWnTphgxYgSGDBly1H88/aWzGxOFV4ml4kRG+765powR/ZqH45z2kbJOjnoov3rft89W4gynG18uTMP3K7Ol+NBa8+dwglWdHC5OJo2O1mSew42J/6ZizJfb8ffmXDiFNSl/EHgbH6+C/M2rfB+yrlK8n96JYbK7EW+rrDZU6Ro8RE8AtyxSf/jhh3LLfo6ciYhwLDYFraSkBA6HA61bt5aCGhYWJhuDaHWSyj6MXuzmTEcPPfSQnEmIVHdxXLWGK44XWu7lejQeLNiRj8s/3YyMQlfpjEQ+DxKDUKDmMUGYcEEChrUTwiqOpeD6rvtT2bwXKGXlhkd6TPoVGo2FQiT/3pyH9xekYdmOAtjpSbbQaH58vwZy90jQh0GY07GhFnw3pi0GtIzwTcmmCWZlCMiy1MUrEPSXwZetW5csmlNw27ZtK1uoGd7pp58uuwZRRFls5qQbHHqoC+qxoBfxSQW/BccM46quD0uhqAjt0+MSEkbZFeaWgY1gDtI6qWuX9B2RF8TJHVlOPD4tCb+uzRG6Iy6I/KH1NTwY5puqyjt6WHp4/Je7evByX2yZZk4AMkuI5F0/7sEdk3dh/vZ8OMziwkFCyQeiOzL0wTDNQVb5Xvh+uNwGrxxNlq3QsuTs4VwHnMstUBQq8F6K/MUSrnHjxnjsscdkizgtR71+kgLK/ph5eXlyxA+L4scqOroFyS5LHFY5d+5ceVwdlqX+LkJDQ+WqkLSIFYrjBb9FZs2dmXaM/mIL/ttTBIPbKWdNl6rhn2+FRdk03IKbBsRhdJ9Y1Asxa/4Eeg6k9/KyY0V59HD64H+aQejHtGlY5M4qKsHS3YX4fkUmZovidnahGwYORRT/l94roz5y/KWIe6ivHlMwBja34ZOr2qB5PauM+2h1pkLLki3YFLPKRqD98bT+l+yYzmGOHLnDxh92MWIRPCIiQtZVst7S6XTKkTc8r99bFVRVOOXBd8K6UTYqKRTHF81a4rRj9w1tjNgwk7AkRQlLz7b++VeoSFK+CxP+SsatwnqbvUVYbyUerSVdZBeZZYR3brivO6LnzcM5zY+fk2cEftEzKZwJyen2YH1KMd6Zt18I/HZc99V2/LQiCzlOYfNyCV+mQQ9Apt8vkAqgCHuNQrvCjXhkeIJ8L9orCDyMspieFPj2y4V1iqwDpNDp1lRloVXKWdP/+usvObKHRe+0tDQ5VpxjtDlGnC3nHHUTEhIiO5eToxFowmnhOPRSX463OtCL+T179pSjjerXry+PFYrjgZ5VjGKnfphFNmIs3muXJbhSxfHPT+K6SwjH1tRizNiUi23pDjknZHSoGdYgI1jypfeDcjtvFyf0YA5RAp7wi4LQL520IMVxodONrWl2/LUhF+8tSMNLs1Lx66os7Ml0okR4NFjYgCM86oHrAVQC+jaajAixWfHosHiM7BSNEAuryxhU5cLyp8JiOIXu448/llOsEXqvrGAygXRli8Os76PlSmhRnnLKKXjmmWfkRBtEF6RAKa8YfjTprQj9eQhnMOKYc1rfCsXxht86i7V7sx14dkYSvl6ZixJ7oWz9PpALxJ5+wM+Y2cblQYjVhG5NQ2SfzZ4JoWgZaxUWqgU2iqfIilp9n4B5qowqGjjRru8c60BLxKFL/MM6yORcp5z9iFbkyuRCrNlXhIw8F7ws+4uADVRmgUxSaboODj9QeJdJ6IbZGorrekbgsbOaih+PIGlhH4tQkgrFkr9MtCo5UcbOnTtlhEdTB6gLDJ0uYHrUPEdhZGd0iuXQoUPltdoslqRJkyb49NNPMWjQINl/VKGoDfB7p2DuyCjG+N/2YPqmfDgd2kTAB+UEPV9QSPRDIZr0ZBECWT/CgsToIDSPCUaTqCA0FMfRIWaEiGvs3M4lK2S9oPDP4ZRFwmrMt3tka/y+HJcUyeRcF/aIbV5hCbxUUEYkxNHAGxln6T8CeUo7fzTwTqYpyBqCCzuEY8L5iWgUWTVCSSoUS15mIwzrHF988UXtDyFEqYLbKoXe6NOjRw88++yzUiz185WhJsRSF3Zub775ZhkPRbMq/hgKRVWgf++08NYJK+7BX3djzo5CuJz2QwWT6PlDioq262VWouVHJ6+LC6zUFMVbKZLS0tTyAy+z/tFDv1RO3qvfwyxMjxRXseFZ70GVkYIqyDsMgemyBFlxRuswvHphorSMWS0hr1dBHAGpEVuxR48eLadcoyBVtTDof1x/YatKgatK+Ox8B+wbOmrUKDlSSKGoTWj5k+JklKsXPjMiAac2D0NQsK1UPA6C53znKZJSKMWxgUVkqxBHm0k4IRWcVVx4o+CyiG13eVEsLEq7sEalnSLEyiD8GEVxXr/HECTukVMdMd/4wiZ6nL54jxU+F5+Pz/niuc2EUPJZtXirSq8CEktGlpCQIDt6syGDx5W1+iqirEhW1QNWJUwTXWxsLO655x506dKlUn1QFYqaQs8+rL/jWOgJ5zbFaS3DYAsJEefEd6xdLoM4yxt9NzMnUtwocjQYJbxGE7E8J67RmzQufffpt0n8wq4qGBqfkc/F5+NztmsYIpKjxVOV0VWoeLpAsHsPZ/O5//77S4cS6oLJ/WOFYfhbllXFsaaN9+uOzxsTE4M777xTjnPnHJz6NYWitqF/lhSTbk3C8PL5CTi3Y6QoKYbKbzmgr5aByIAq+Y2X3ld9MHQ+R3h4qHwuPh+fszqEkgRsWdKxSw9nD3rggQfkdGi0qnTLSvdzNMLhf49e73isHE06dMo+C/8gen/Tu+66S868rlvYxxKPQlHd6J8nDb8OwuJ68dwEXNEtGjHhNhjEd11usbwOINdDF+mvFxmCa3pEy+fi8/E5SXU8VsBlaYoCRYOCyYYNrqHDqdCioqJKh/wdq3DocZBjsTAZBh3DO9pw9Ofhs9GC5NBMNnBx0TUllIq6hP9n2jQqCI8Pb4z7hjREq7hwOaCClqdObf2i/dPF9AYHBaNNw3A8MrQhHj2zsXwunerKlhV2SvdHFwh2k2FjD/tDslhKQdItQm4rW5xmmBzuyNZwdvDmJBv6+crCezgaaOXKldi6dWvpiKBAociyyoECycYbLnFx5ZVXyv6UnCyDsyjp70GhqCv4f7OhQSZ0F8XVLvE25Ds8yLADxY4ScV1cFFmFm9rydfunhdYkG23qR4Xi7PZRePqsJji3UwzCgzlP7sHPWB1U2HWoPHQxpLBQjFJTUzFv3jwpUJw8g2O+KVj+QZcXjf5wLOKyWH/BBRfI1Rf1SYIPhy7Ih2tc4QTEM2bMkOuUc5kJf8Esmw7/eLhPoaT1zAYtCmW/fv1Kh2QyXj3NCkVdhXmA2YCfcVKOA18vy8BPq7OwLcOBvMJi4YMlsgPVYYfm3OrHP4cZhECKFCMy1IZWscG4uGsMxvSpj7jwoNLnqIk8eVRieTyhYFEAKYicKFihUFSeA7meXYA8WJVciK+Wpctp0fblOlFodwjBqnnRPEgkhTFGeQqzWdE40oLT20Tg6p710a1xqG+9b813TdkudU4sMzIy5ByZnOqNRWP2AVUoFEcHsz8VgIKT73BjzrY8/LwqQ85alJLvQn6Rw+dHeCojFVUhHIfonEiIXnqLDLWiYbgZ/RPDcEm3enKC4/BgU2l6a7qEV6fEklblzJkz5SqShA0uatJdheLY0BSABV1NvHLtbizZlY/fN2RjiRDNvbklyCoohp31mkZfFz9Whfn86wQiJGX903plmBQ+TkZsDTYjJsyGppFmnNo8FOd0iEbPhDC5xveB+Ohf7tQodUosaVW+8cYbePnll2W9Jvt8ciVJZV0qFMeOFEGx1XXIUeLF9gw75m7PxYLtediY5kSm3YvcIieKih1wcUYjn3Dpgqv9f6ikUBS1gA/2bxH5ONQWjMiQINSzetGufjBObRmBQS0j0aq+FUF+Y8i5V9PWpD91Riz9rUpOGUcGDx4MNuYr61KhqDqkaEp1khIn4SQZW9OLZd3mGuG2phUjJc+FXKe45vKgWFx3uEpQUuKGW+RVfQw679fGkrOvsgnBFrNckjfEYkRkENAk0oLWcSHo0iRU1kW2qGdFCIdICjQ95dIXx1ckdeqMWHLey9dff106trQTzlLOlSNpYepzYCoUiqqByqAJltRN6QiFME8U1Tmr0O4sO/Zm22WjUFaRCwXivL3EI8eOFxQWiTA8iIoIRYgoXrOLT71Qi5y9qGm0Fc1irLJ/JIvYFFQi42SkjI8bX5y1gTohlpwm7s8//5RWJGcU8ufUU0+V58844wzfGYVCURtgXuVE3H369Dkh5nsNeATP8YR1lezHuWbNGt+ZA6xatQr//vsvcnNzfWcUCsXxhgsPMl9OnDhRiqacsb2OU+vFki+ZL3vWrFmlxW9/uJ4P/yhcGVKhUNQOuEwM8yXnlKWhQ4OnrlPrxZIW4+LFi8u1KnWUdalQ1B50q3LJkiVy8AjX1V+9erXvat2l1oslf6G42Fl5VqWOsi4VitqDblVyQUL9eMWKFXLFhbpMrRZLLpY2f/780q5C7E/JIY4cR84JeJs3by5XgyTKulQojj+6VelvuDAfc7XVI5UO6wKVmnWopqEAvvPOO/IXqnv37nKiDU66y4kxKJacW5OtbDzOysqSfxSKqRozrlAcH5YvX45PPvnkEGHk0tdcq4qrC3DmrrpIrRVLmuz8haIJzxnab731Vlx11VWIjo6WxXKO4OEStMOHD0eLFi2khck/CPtedurUSU75plAoag4aK99//z1++uknaWH6w7pLNta2b98eiYmJvrN1i1pbDGc9JJeveOSRR/DUU09hyJAh5Q5rpIVJi5OrQnIGd/560cpUKBQ1y7p166SBc7iWb1qdrFbjFI51kVorlpyN/KyzzjqsSJZFF83LLrsM8fHxvrMKhaImoFVJoaQgHg4aQByyzOq1ukitFUsWsznlfWVhcVxv9FEoFDVDWauSk2Uz/9JxZQWdumxd1vquQwqFonajd93j4BEKY8uWLWUpj2t0sefK0KFD0bdvXzl/Q122Lmt1a3h56EMfWVl85plnqgk0FIrjDIvgu3fvlq3cFMhLL71UNshSNNlb5frrr5czhLENgufYrtC5c2c0a9bMF0LdoE7NZ0k2bdqE5557TnZSf+WVV+T6OArFiQxbkvndc8ivP1wDiwvrsY6e3eUoRNWFw+GQlmNKSopcl6px48a+K1UPrU4W1/v37482bdqUu9YW3wUXJOSaXRTfyvDpp59Ki5cCXpleM6oYrlDUciiWHPLLia65BPUXX3yBzz//XPZn5GTYTz/9tDy/YMGCapuwwm63Y/r06Xj77bexY8cO39nqgePJ+UxHmoCDXZQeffTRo0oLja2vvvrqkO5NFaHEUqGoI7CYS0vqsccew+OPP46HH35YFnE7dOgg6wG5ggAbWhTVgxJLhaKOwBZmjmS78MILpRs1apQcmMF+yFdccYWcuOLLL7+UlmhdhFYkV0SorSixVCjqMKy3ZP3b1VdfLestWZeXlJTku6oVn9euXYvvvvsOH3zwgSzCs4G07BwKFCpO1Pvbb7/J4v1nn30mZwviCgWHg8OMacmyDpB+ueIqoVhv3rwZU6ZMkSuxfvzxxzJdHGGnN5HQ7x9//CHTQr9Tp07FL7/8IutEj4bU1FRZtOaYdNav+vPDDz/g119/PWQiDz7vtGnT8P7778tqjdmzZ8v3dbhmHCWWCkUdh+vTxMTEyAEcmZmZsjGIsJWaAsBVULkcC61OCuYLL7yAb775plQIKZTbtm3DpEmTZKMpBZUCqO+zpbssFMr169fLeyiu9MNwKFSsO2UdKif+pYBRMCdMmCAFeNeuXfJ+9rNkej766CMppnTsf3m0E+Hs2bNHVkNQlCl4/jAdjCc7O9t3Rlum5r333pPv4+uvv8abb74pLXSmic9QnmAqsVQoTgBYn8k5EpjRk5OTpXBRNClabDW+5ppr5NDh22+/Xc6vwIYaWnIs9lI4KGo8puByTSuubUWLlSLz888/H1Q8ZthssWbjEq1CTmhz0UUXISoqSlqxnPxm+/bt8hzrVdkwxRnCJk+eLMPyH47MhisKJKsUmEb/3i20TJ955hm5bExZx9byshZkZWD6KfDnn38+xo8fj7Fjx8pWd4bNuSf4jGVRYqlQnAAwo3NYMDM5i7js/M3WZLYWs4h+4403yuHD7APJRiH2T2ajEK0t+pkxYwZ69Ogh60BHjBghRYT3DBw4UFqRej2oLpS0KCmMrDtlB/SIiAgpqIsWLcLOnTtx8cUX44YbbpBxXnLJJTJcdjdiSzev69Aq5kQ5FMuuXbvKrlA6nLmI6frrr78OcXv37pXpOlr4HLfddpt8N0zjtddeK+eW4Htjsb28el8llgrFCQAzPzM6RZOCw/o5FpMpirQW9SGHHEZMC5TCxDo7WlesJ+RgDzYecY4FwrrQjh07Yty4cXJaRB4T+me3HQoW+zpzDgd9YAiL/Sxms/6QRXEWvXVL8Ntvv5Xx0erVJwUm7dq1k53T/YdE6lCI2fLP5a/LOgr70QyH1mH/TT4vG80IRZvviX1W+SNTnhArsVQoTgBYJKWQUUBYfKZlRMGkGLA+0x/6YVGcYsc6ToocxZDn/KGlyinV2rZtWypmLLJz/5xzzpHCTOtUtxSLi4ulo3BTEFn81x3TxnA49JECq0OhPVzHcM59yVF6tPzKOhbXKfyBUF79I9PA+/3XI+d74Y8FLXNVZ6lQnIAwY7M4zSIuBU8XNxaNKZr+DRuEIsl6QvrRxUovvvvDY9YNsg6PVitJSEjAlVdeKYusFD52V2JndTaq6JPY0DpjVyZ/S5D1giz+s4jPMHQouLrVWhWUFTmKN9NWtksSLWk+sz98L3xXFEx/EdVRYqlQ1GEoArTi2HDCibIHDRoki7UsirOzOjM/u/XodXAsXtISZL0jLVA2vDRs2FAK68qVK0sbXyg6bCHXG4J0YWG9I8Nt3bo1zj33XHkvu+WwfpETbzNuponx8hqLu3QcLcO1/9kgVJ4QHSu6lUhL2b8IzSVp+ExlRXTLli1yETUKpM6cOXNkt6tTTz21XKtViaVCUUeg4FEQ2ehB9/vvv8uuLi+99JLslsNiK1uUaTGyCN2zZ08phmzpZvce3sNZzNnCTcuSqwywiM46zNNPP122TLMlm/0f9f6WXGiMRVYKoT+0Blnnx4Yg1lGyvyKFirMLMU6KN7vl0OpkH0+2nFMsKWTVsaxEXFyctJLZb5PvhdYw+26ySxCFu6xAs+qB3anYbYjvhV2k+B5pVbJBSq/L9EfNOqRQ1HIokmx5ZuZnAwlbnNmfkH0oKXDs7E2RYutur169pJDR0VqkJch76JcCQkuLlt/o0aNlKzYtUAohJ6NgUZvWFcNnHmNfSA6vZEs1i9dstKHlxYYQWpCs4+NMQjzHKdpY/O7fv7/c8hz9s+8kw6JIsoWc4kphY30qFzGjBTdgwAAZjg7TyDRQwLlEDIvqZaE4b9y4UaaNadHnsGUned7LKgkKNd8B0ScTZ/cm9rvs06ePFG3+GOjvhmHcc889BzWI+aNmHVIoajkUyyPNOsTiNIvF5c06xPo6NrCwZZzWpN4fk1aov6FBMWOrOOsoWaynJca8xanUKH5sQCpv1iHexyI4r3Xr1g2nnHKKFGMW4WkFswhMQaSgMSyKFsNmfSiFlNdoAfs3Lh3trEO0IHkfu0LRqKLgMQw+D/fZDYriyQ73rNdlXS398jp/MGgRU0T1In1ZlFgqFIoTDjbsUGQpkuUJ39Gg6iwVCsUJB61G1jtWlVASJZYKhUIRAEosFQqFIgCUWCoUCkUAKLFUKBTVAvtqctozdns6EVBiqVAoqgWKJPtDcgKNEwEllgqFQhEASiwVCoUiAJRYKhQKRQAosVQoFIoAUGKpUCgUAaDEUqFQKAJAiaVCoVAEgBJLhUKhCAAllgqFQhEASiwVCoUiAJRYKhQKRQAosVQoFIoAUGKpUCgUAaDEUqFQKAJAiaVCoVAEgBJLhUKhCAAllgqFQhEASiwVCoUiAJRYKhQKRQAcg1h6UVKciS3/fIpn7rgSI4acir59+2PIOaNwy2PvYOqyZBR7fV7hQeamOXhv3FW4+YXp2OP2nT4KEhMT8eyzz2LChAlo0KCB72zV4C1aiQ/vHo3bXvgNq5Id4gkVCoVC4yjF0gN71jbMnjQW/7vlWXwxfx9CErugV8/OaGLNwsofXsaDd4zFo58sQ6ZHu8PrKYHTXoxih0uIkBeOrL1YPesX/PrPBmT7/ASC1WpFs2bNpGgGBQX5zlYRnkKk7tyC7UnZKHQqqVQoFAc4CrEUFmV+Ctb/8hIe+2A5TP3HYuKnH+HVZx/HI48+iRdeewsTX7kfZ4dvwG+fvInPF2YLaTUgqkUfXDn+NTx76xA0MnphT9+ORT9/gs9+WYb0SoilQqFQHA8qL5ZeO7KSl+Dbj2Yjp/mlePTxa3F611ZIaNwIDRs2QpNmbdDj9PMx+tYr0L5wE+b+vQw5HgPM1jDENk5EQoNIBBmEEVfiRGFOFrJyi1DiC/rIeOHxeIRTFp9Coah5Ki2WXnseMtfPxpx9Npxy0VUY3CwKwf6hGIww2xqi05m3Y+Lkr/Dqjb0QYfAga/NcfHj/aNz8/E9YtPQXvPHgWLz2x0os+/UF3DTmYXzyX66wQA/GnbIC3zz7AG6//zm8/uY4jDqjH/r0HYSzRt2JlycvwJ58rfLTsfkPTLrvDtw7cRo2llaUupE0+z08dMvdeGXKcmm9uvN2YuEPr+Ouq8/F6QMHYPDwS3Hbi99j0Y5sHFzqLsKuOZ/giRvOw5BBgzHs4lvwwvf/ISWfVQgKheJkpJJi6YW7uBCZW7YiLbgpuvVoDlt5IRhMCA6LRbO2bdGycRTMwpJ0F+dh/66t2J6cD1vTrhhywaUY2rEJEjoPx5Wjz0e/RJsorJfBVYCM3f9hyhfv44NvFiOvQXec2rcNQtMX4NPnnsWk74Vg2oXFWZyNlF07sCslG8V+iuvMTcXu7TuRnFkAlzsFC797Gy+//h02u5ui15Ah6NkgH8u/mYCXv5iJ1SkO310epPzzAd76bjEy6/XEmWf0RGzWInz+/Kv4ceVuZJcouVQoTkYqbVm6RfE5JyMHXnMU6sVYSgXOW7AHK76+E/1bJsrGF+ladMGQy57GP1n+NqMJofUS0KlXP3RqUg+xzbpiwMCeaFP/QFgH4S1Cka05+l/6KCZNfAFPPf0yJr78IK7qnou/f/kd/67JDsja82RuwvKlK5DZ6AzccO/jGH/f/Xj85Wdw79VDkWBywVFY7AvHg+zixhg+5hbc9+A9GHvP43j5vgvQxrwHq7ZmIs8uPSkUipOMSoul0WiC1RoET0k+8gr8ZMoShvptB+Hi0dfgmmuuwehLzsaABANSU7NQVKZ8bTAaYTJbYBJbhme2mMV+uVIpPFuR2KUXBg8bjJax0YiMikZ854EYNKgfonO2Ysu2PaLQXDGG0GjERIYib83fmPLzVMxdn4Iia3uMuGU8nhh7PnomhvvE2oj43qehX6f2SIgOR1h4JBokNEZsmEU8M+tMpSeFQnGSUWmxNFltqNeiCWxFyVi3PhWlXSaDotCoywjcdO84jBt3L+684UoM7xhZvrVYGQyhiIqKRVysFZqeGmCwRKNebANEGwuQl5eHogBMS4OtPUbeJNJ2TXfk/DsJ91wxDP37noYLb30BPy7dg1yXnlIjIurFICxEj0/cazKJfRGvdqhQKE5CKimWQjBskYjtPAinBO/Hsl9+wfpi3xU27ATZEB4RgYjwYJQ40rF25a4AW7qPgNeO4uJCFPgrotcBuzhX5LYgKCgY5fe29MLlcqHE5UuBIQjRLfvj4jufxyc/TsNvP32B18edj4TMWXjz2bcwZdE26IayUTyLkkaFQuFPpS1LgzEUsYmDcOUlrZA57wM88/pM7PGvx/O6kLd3Jf766HV8ubKg4vrEijx4i7Bj/Ros/W8D8qVfL5ypa7Fq6WIkWZogIaEJwoUJaEAxCgsLUegTVW/xDmH5skFJq4t0bPwVr467EeM+mIN0a1O07XYqzr7ydlw/sjviCnZj1/5MX/hECaVCoTiYSoulMCFhrdcCA8Y8inFDvJj7+o0YefYo3Pno83jtzdfwzH234JrRd+LtleE46/LBiDuM7ohgYPQUImP3Gvy3dCP2Zrt8V8pigmvvQvz8znjc++Rb+PD9V/Hog4/j1Z9T0XbAaRh0SgNYY+uLYroXO/6ajI8mfYwfp07GW088jonf/YMt+VoCLHH1EOJKxfyPX8GLE97A5z/8jB8+ew3v/jAfSRGt0apxI0RV/m0oFIqThKOQB2HFGYMR3WIQxrzwOT598iK0wxZM/3wSXnnlXfy4JAuNht2Blz98A+OuH4ULTm2POPZCPwgDQuMS0KlPZ1i3T8UbL7yL3zcVlW9kGqPQccj5uHhEB+TOeg/PPyeKzOvN6Hvd/bj/hhHoGGWCsWEfnPe/GzG6nwlrvn4Gd91yJ16anoWEU/qjT+c4+ZDG6J64+CZhSQ5vgG2/vYXHxo3DoxP/wL7GF+KB8Tfh3F5NYNViVCgUikMweAW+/UriBW91u5xwOJ0ocXvEsQFGkxmWoCAEWUwicDdcLg9MwUHCiuTYcDtKDMGw2cQx3HA7HSi2u+A1WhBksyHYfHBNoXvPXLz97AT84joNDzxzOwZEukQ84oLRBEtwMIKDzDDRRBVp8bhL4HI44HAUo6DADq8lFJERwewJBJOFfkV6PCI9Ik6HqwRujgRiPatFpFWk12KipJbILkQl4sfAGmyByaSlx+sW6Sx2CvNUpFGEo8WpUCiOxPPPP48pU6bIiW+GDx/uO1t3OYaCpxAS2ahjRWhYBCIjoxAVFYmI8FDYKDTsFmSyINgaDLMQF+5bQ8MRFhIkxEbcbTDBHByC8EjeEwJrGaE8CBGPySLiCY9EpIgjMiIMIYyjVLS08INDwhARFYtGTZogvkE0QkNCERbG9Ji11mwh5EG2UIRHRIq0ivRGRshW7yCzUVYLGAxmWMO0NJp9QilDNwUjRJwPEeEooVQoTk5OvFo6iqLufKcUCoXiWKnVYmmIaoGBl92I2y4/DW3ClfQpFIrjR+0Wy/B4dDltBM47vRua2HwnFQqF4jhQu8WSdZVmCyxmbQSNQqFQHC9OvDpLhUKhqAaUWCoUCkUAKLFUKBSKAKhasfTakbJ6Gl67aTQmLMgvf0ROFVOyZSqeG302Rtz5LuamHe38aV7kLXkX9z3wEn5akgR7TSRcoVDUKapQLL1wpG3F8hk/Y47tPFzVV58fsnoxBIUjrkkzNGsUgxCz72SFeJC94W989+lk/L02CfkeAyJ6nIfTQrdh1j+LsS5FLYOrUCgOpurE0lOAfTuWYfacNHQ/fzgam3znqxlT4lDc+MJ7eOfhUegZE+jjeJG9nmL5HWat3atNzWaKx8Ch7ZG+bCGWbtwlBFTzqVAoFKTKxLIkOxk7Fs7FSmN/nNEn4lCr0uuF1+OGOwCTze1yaePIfcc1g7Auu/VHL9NmLF+6BTszazZ2heJEY/z48Vi6dOkJMS6cVJFYupGTthdLlm9CUPe+6BbKcx7kbpuPt284FYOueAgvjh2C5lE22MJi0bLf5Rj/2UIkyzXCPNi/ZDIeG30OLr3/HUz57EFcdOaFuOHFv5DqdiJt/Z94586ROKVZLCIi6qN5r/Nx7zt/YkOWJmbl1Vm6Mjbgl9dvw9ndEhAbHYsmnYfh+gk/Y9neAng82Zj5wtW4YuzL+GXeVLx41UCcfu2b+GNjIRDaHt3bW7Bj3QrsSso8MAu8QlFTeF0oSv8BV4lSUumwXeGMpiCEx7VE7wvuwqSZu+Cbc7sK8SJ309947vLTcfZtH2PNCWkruLDy+cFo1v4GTN6ZWem2iSoRS6+nCFnp67FppwWtOraD/2AbLmS2dPon+HCOGUPuegGvPHkjTotchy+evAv3vPI3UvQ/ij0Zy2ZOxfez8tH/hrtx99W9gTW/4dUH78ILM/PR7tIH8Pxz9+LCVjmY/uJ9eOD5r7Am91A5c+1fjC8nPIjx7y5DUN/r8NjzT+CWQaFY99H9uOupD/HnNiP63PAiXh5/LYaccjquf/ELfPzc1RjQwiY+ylC0aZcIS/J2bE5NQ45ao1xxnDCYg9HgtDvw1jvv4B3hJr3xAh783yBEbxOGxVVn4fpJS9VKozVM1ViWJXYU7N+NFGc4mjaNxUHVlULPIpr3xRXPf44PnxmHO+9/Fq++8Rru6+/CupmTMX2zU3rz5uchuEFbnHn/K3jgqjPQvXERNi+egTlJbTDqoTfw3ksP4I6xD+OlNybgkSsSsHfhTPyzNPXgYr23CFvm/oUZi3MwYOyzeO3VR3HHTbfh4dffwQu3nY6gFTMxe8E6OGKaoEmj+ogIjUD9ps3RvHE9hMvFz01o0LgRwh0Z2Jueh3wtaQpFzWM0I7rTCNx46624Vbjbxo7Doy99gB//+B6P9HViztvP4OPVh5kDtpbBqRw15ztxGEr9+Y5rG1Ujli4X7Fm5KDBx/Z0yQZqikdj6VAw/vTG0xmoTIhPbovfZA9EgezfWr0/llJOAOQ5Nm3VC17Yhsr7Tk5mKfdt3w9SmG/r274wIX7DmuI7o0rMf2ppTsHvXHuT5vVmvZx+2bduGpOJIRBmKkbpmKZYsWYIly3fBFRyGCFMO9ianIPMIy9maOBWbpQj5OcWwO+rCp6g4aTBaENaoO6569Ba0KViPX35YpC2FQoHhXK32IhTk5SInJwe5efkoLHaixK90RCHyuEVeLcxHXm4OcnKFQVBYDEcJ56L1efJHnHS7HCgShkx+oR0uYZnIMEpEGEUFIoxc5AqXX1AEh8sNjy8Qr9sp4igU8dvhcNpRmJ2F3Hzhp0xJzestEf4KUFhUjKKiQpHnRJpycpGXV4Aih0vOOSsfz+NCcUE5z0MjLT8fRc4SLW49vcKv9nwiLKZNPt/BcYuHOOg9FBQ5ZNhlvflTNWIpHsnLiAwmmMq2gpuDYI2IRlSw75hYrLBFxiDc6ES++KPK9HGC3pBQhPju9zgd4g/ihskWhvBQ/2TaEBoajvAgJ4rtQtB8ZyUu8QcqKEDGupmY9PD/MOLss3G2dOdg1PhPMWdHnvZCj1B84ZyXZqHW8nmO8OIUiuOBwRSCsIShGNTSgbSVy7BZfMterwv5Kavwy0s3Y2T/LmjTqi069xuB65/8FPN2FWoCIz5mrzMXe5b9jKfHnI0+ndqibcdeGP6/R/DhzC3IEYJyMCKfODOx6a+3cefIQTjn1tcxZ68dHlcudv33E16740IM6t4e7Tr0wGkXj8Vbvy5HUiFFSxQmt07Dyzdfg2vHv45Pv34ZN57/PzzyySxsK2ukFCzFpFsuxZjbH8K42/+Hod1aITGxFTqfegHGvvkbNuwv0gRz/3Q8eenpuPrZ6Vi1/0A6XYtfxSWDRmLc5JXCQKL+ZWP9tDdx+6VD0Vs8X6u2XTHggjvx7uxtwkDy+0EQIp2/5Te8eP3Z6N2hDdp27ouRt7+Df3bniZKqiM/nrSxVI5acVJeT/rqFUueLRPlOS0qE0uekI71QP88/mvgFzMpAvicY4RFhWss5//FrQjdarQgJt6CkIAfZOa7SB/V6CoTAZiPXGYzQkBBY/e4xmG2wCcFtMvBavPXHZmRk85dKuOxsZKSlIHn3Enz+4IXoEOF300GIX03xq1TgCoItLBhBlsP5UyiOEwYjLJYYJMSHwpmehH2FbhTt34Bpz92AWyf9B0Pv6/DYM4/ghiEx2PLtc7j7ntfwb7pb5puklVPx8h334rudcRh+xxN48p5L0DZ3Bt56/BFMnHVgWWvKhceRgY0zPsdrL3+JLYlXYPxTd2Noghd75n6NVx97HJ+uD0H/MQ/h8QdGo7dtLd599DG88tUipLj0jJqPDTOmYtr8FHS45naMObcvEv0zaylFWPHTJ/hhUQZaXHA3nnziLpzXKh//vvYAnvz8H2z0NeRWjAcZs17BA4+9j1W2UzHmkQl4+ZEr0TbnL7xw/5v4Z0d6aaOYJ28OXrj3Q+xpfTkefXMinhiViH2/PI6731iAPMfhm3WrRCwNwlIMaxiP+oZ8pKUX+s76cGdj1+Z5+P3P7cgXZrndXoj9G9dgwe/zkBbbAl06xZebCGNMIzRp3RKG7Ssxf85SpBUJk94hzO69y7F08SJs8zZFyxbNEOn//k3xaN6iOaLtW7Bi1RrsymNRmsvmpmDhZ4/j+qvuxMTp62TRXd7m9Qgrs0QuiaEVIbzIycxAoTEGjeLCEVbuH1ehOL4YjEZYbUHweByieJqD1M3T8dm0fHS87i388NETGHvrnXjkhTcw6fGhMG6Yhs9/2YrizN1Y+8e3mOnshbETP8XrD96GW+99FE8+8zBGxqVh1dwlSJVGmyaU6//6DC+/8Bk2Nh0lhPJOnNXcCk/mGsz7ewaWYTBuf+FdvDH+dtx0xyN45dVncH2PPCz9eybmbvTVo3rSkF+vO8688hE8fMM56NkyDmHl9b0WVp4rtCfGjH8Br730KO659zFM/HQi7rugGdb88juWb05CsU9/j0wJti5fiRRjd9z80FjcOOZq/O/2Z/DWy+Nx05kJQmMMcPt00Gt3oOMd7+GNh2/FVZdcjtteeA2394lG5rYtKBJacDiqxrI02hAZ2w7NGxZh24atcPo/nNGE4uR1mPbSTbjlsVfw+ouPYtx9D+Gt5RHocfblGNnO4vN4MAZrgihKnIUzW+/DtDfvxy33v4g33ngOD9zzGF77JQtth5yN03s2PPgBDGHoMPhMnNnLhtlvPYI773oSr789CS89MBbj35iG1Piu6Na5laz/NAVZYHGlYN2ifzFn2Q6k54tfX68TO7bsQlH9JmhVvx4iq+btKBRVh8hbHo+wJoscMJpDEIJC5K5fhZ22Fhh+0RDE+r5ZU1hDJJwyAoPj87FzzRrsFEbA+rVJCG8zBGf0jPSV5mxo2vMSPP3VVHz0wDA04L3uPGyd8x0mPvMKpiSFoVm7bugcr9WhFezdLfLHfngjI2F178ZytgcsWYo1qUWwRMTALSzdpKQ0rQ3CEI7mbdqgTeuGvraKw2FEw76no1/ntmgUrBknxqgeOGNwdzQp3IFNqRnIPryx54dZGFdtEedZifeffwMffDsDS7ekwNz9ajz8zL24oP0BsTaEnYpzz2iCMJtJew+meoirHwST0XvE7oJVIwcGC2LYB6x7E+SsWY6t/g0jQXE45awbMH7cEJhEMeCbH+dgb8RpuPP51/Di2MGoT+EKDkV0/YaIiwnDgZKvCTEdhuH2Z9/EU5e1hWPlFHzxxTSsKemIq59+Fc/dK4oQYYdafkHxAzD6gRfx/G0DEL53Nr799Cv8vsWKfre9jDceHYOhrVjsN6FRjzMwbFBz5C38Ad/+sghbM12AYwdWb8xDo/bd0bJxHHx/O4Wi1uAVFpSzeB+27imCLb45EoI9cBYUw2WJRHSUv+lmQVCwOBfmgasgF9lOuyjZuREUFXOQEcA6+uDQMLnulDxdkoWMQgPqdbgQ/xtowYY/v8Tns5Ng93hRzEaYvL1YP+szPH3DFbjiCp+76h68/fsG5NjCYTX5LDODFTabDbYKS2dGhEdGCL9WTbgkRrnWltXkQkGhE67DtTGIkuEBjGh28ROY+OrDOCtyK6a8PBajzjgVpw69ADc8OxlLk/JKjThjaCQigowwVjJ/V41YiscMrh+P9qf2Q4v0Bfhnk137dZEYYI5IQK/LHseXs5Zh7bqVmDf1XTw4qje0HywjYruOxLj3v8cnj12Alv5/b0MQYtsOwTVPf4bfF63G+vUrseC3D/HY6MFopX8YvuJzaeWtiM/asAsuuOt1TJ4lfvXWrsTiGV/j5TtGolvjsNJuTZYmg3HTS5Mxf/UaTJ8wGgOaB6N46xIsy2yCrr07oHmjYL8/nkJRC2DjgzMPaet/x/w94WjWtzdaWy2wxUTC5sxAclJBaVc6r8eO4vxUpOaaYIuORb1gG6LCzHBk7keGw9d+IMJz5qVi8+LZ+Oe/bchmpjU3RLdhV+GBiRNw55hR6IO1+POb77AgxYEgWwjCotpi0Ohn8fPa7di5axd2Cbdz2yasXfEf5n8tiuNDW/jymLYGVsV5yIPstDTk5OajxJeJmfb9+9NR4A5GZJjV13bgFRa11kijpd2NfHGP3enyHQthzXEiqvsleOKjaVi47D/889tHeOSsUKz68BFMmLoJqWXbUypJFYmleCmWGMS36Y9BXR1Y/Ncy5FT3CADx1twlTvFrV4Rih4hMjnTwXTsKvCW5WLNgFZzteqJ3++aorxp3FMcZj6tIWHJ5yJMuFzlZqdi59h98NuFrpDbug0su7IkQWxiiOvVCB8NezPz+N2xOz5b+s5M2YvW837AwMw4de3ZF83px6NS1OZzbZ2H6nF3IymGY+7Fp4RRR4noUb/60GjlUEpMNYWHRiBFF7Va9TsdFl5wC56o/8M33S+CMS0Cr1pHI27IM8+bvQIYMIwdpm2bh3UdvwR1PfylEvLKdkz1IXzob//63DBv35yA3NwcZO/7FtL9XIiOmHTo0ro9oVpmZvchKSUZ6eiYKCgqQm7kFf81cin3p+Zph5knG789dj4uufQZ/rtmNbFcw4lr1xjmjzkKX+mbkp+fC6QqoPH9YTE8KfPvHiBHBYaEItXmx69+l8PQajOae/di8bCF2h/TE8DO7oF6VSTNxIn3bMsz86XtMW5yOqG6DccbgTmgYdDQiJ361UufhxxlZaHf6cAzu3gShXK9XoahxRLG5aBN+m/Qj1jlN8ApRWLJ4ERYtmIMZU7/Ce298iNl5LXDxgxNw15AGCDIFIdgqitYFizD1p1/x9+p92L97Bf7+6St8OmUbYgZdg/vuGI5m0SGwhQcjY/5U/PTnQmzel4Kt//2Jn7+fglWGbrjgphtwemQalv47D3tsXTDs7FPQMCQGMWHBcGyZgT9XpKFen3PRtzGwb+FUTPlrAdbt2ovta+ZgqrA8/9wcjr7nX4LzBiYiJGsj5s9djr22dhg4uCeahR4mLzmTsGj6TKzbvRsbt2zHti3bsE2E9/0Hn2DamhIMuOEOXHaayNMRXuxbsRhzZs3DlvQsZCStx6wvJuLzOZuRnBmCLiPPx8COrVEvewlm/zUdf6zcg31Ju7B5+Wx898E3WJDTHBfcfBUGtYlB3qIv8N2aehh21TC0iwqR3QTZIr9u6seYYe+N6y/pjcggX11mGapQLIVxZ7Iiol4C2rarB3NQfcTXC0Nkw0S069IVbZvEVG0doOya8B2+nboU9q4X4X+Xj0S/ZuG+h6889jwHwtt2R8+OLRCrV/wqFDWOFyWOvVg0ZR52ZOzC6pUrsXLlaqxetwm7swyI73sJbn/sWdw9siVs8iM1wBISjabd+qNrVB62LZ+HOQvXIsndGAOvGouHxl2NHvVEwdgQhPD6iejWqy0MSSuxaO58LN+ej4jOIzDmzjtxzeDGMLBIvnYjcqK74DQhUrFGoyjixyDM5sGe/1YgzdoSgy48B6d2aYbgjI1YOn8Blq5PgbfpAIy592787+xuaCCMFU/ubqxbtxO50R3Qr19nNAk5TG6SYjkbWe0ux+jhbeDd/A9mzN+ArNAOGHHbQ7jn0lPRMiZI6EosWrVrgjB3KtYtmo2ZQjTX5SbgwmvORIMSK5r3H4QerePRvHN3CD1E8uqFQqzn4791yfA2G4LrH30M1w1ojhgrkLVmBuYkN8bpFw1CywirTy8c2Dn/d6w298YVI7oi3FJ+/jd4D+narlAoFNWPN38RXr31IfxtG4V7778Ow9r4N/IcBm8JivIK4QkWlnKwBTVZAKzSgrFCoVBUKwYzQiIjEWatWaEkdU4s7XY7du/eLVvhnE4100VthQUW5TSnOAzGYITXi0P96DBY60CDap0rhm/atAnPPfecFMpXXnkFTZs29V1R1Bb0T0rfcj7Gkw0+O59eX+/+ZHwHFVKSiS0r1iHN1ASt2yaiQblDfGoPSiwVVQ4/KbfHg2KHE3bhStxuIRw1/5l5GK/n2LqLHC0mo0l2tI4IDYXRqBXglGDWbZRYKqoM/VNyuFzYuz8dq7btxNY9ycjOy4fbN9rCZ2fJf6sFn0VHXSrMzYS9IJcntRM1gYifohhqC0H7Vi0xuFdvtE5shiCLRYllHUeJpaJK0L4iLxxOF9Zs34lf5i3G9n2pvmtSvuR+taOLpfivICsVRfmZMv4alSlfljKYTIiNjsbYq69Gv+7dYT5k/kJFXUK1hp+kUECq0lEoPR4vtiXvw/RFy7AjZT+8JSWaY3FY369m53H79rkVRXAvh8jVtOP7oBP7GZmZeO3TT7Fzb5L24o8LnJuyCDmpu7EnoxgeZyGyuXTKjn3I1adUqxOI5yhIw97kNOQVu+TcmTWJEsuTEE3c+OmJ/Cz2j8oJISjr8goLsW77bmzatUeu0Kn71QS1HFGpRqelya3VWwrhlPs14RifeFY+N6f/Y1py8vLwxZQp8p0fD7xuO7K2zMW3rz+Hd+ekwpG2AbMn3Y/r73sfC7LrklgC9h1/4t1X38Ovy/Yg3yX+1r7zNYESy5MUChgzc2FREQqEyFXW5dMVFJS6POGS09KxRzijUStu8kOWgiwKwW5xzi2KodXtPEaztpX7FnhNFrEvttyvCcf4RLYSPw/yHeg/LMvXr5PHNY8XJXl7sW7hDMxN74gLhyUiKKQemnYbiGEDOyPe6vNWJzAgtONwDK2/F3/PWorN+4vE+/VdqgFUneVJCFuqae1s3rEDe1JSZGauzGdAv87iYpSIv4FstBC3UhRyi+3YkVWAHLtTs6poTRqMyItqhLzoeN/dgups6BDp4JMwCkdGLpx5BcK6Y6OLdrlaEXF7TEEIzd6KsKytQjy1mRz1qOd8841vr+bwergW1Z/4+NWPsOeM1zDpmrYI8l0rF9/7I7WzQcqL/KVv4/qn12PQXXfhysFtEVNDfTSVWJ6E5Aor8Je//8ZPf/4pi87MIAGpic8fhbAgky3NBb5uMQZZBA0Oi0Cj1h0RFhUjj6WICotyT8te2NOqL71pwlGNmbD0cxZReNKd8OY4ZTpKFas6Ec/stoQhbus0xG+ZCrfZN82fSBOFp+bFUoh34V4sm/oWnv80Dxe//zZGtzTD68hDetJu7CkMRWK75qiHAmQm78WeXCOiojzI3Lsf+W4LQiNj0ahJPGKCirB/z17sz3XAYI1EXHwTxDeIgo1DaLjoWH4WUpKSkZ5TCHuJF2ZrGKLj4hHfMBYRVm2ctdcl4tifipT9Gch3AMGRDdAgzI3svBKEN2yMxrHhsBi8cBVkYn/KPqRm5MHuMYlvKgYNmzRBg6gQBPmG7HiLVuC1a+7Diu734OHrz0THBjUznaISy5OQnUlJuEe8w9z8fJmRSz+AAD8Ft9uNgqwsOIRYcokDwro5azjFshNCo+vJhhYpliYzkpqfgr0teknBkh91jYmlAx4plppYVTtCLEsoltt/R4Nt04RlGaw9sC/+4yGWRXuWYcrrj+Pt9PPx0We3oIMwdkuSlmDKxKfx4rrOePKz53COZxV+e+d5PDHdgd6DIrBj3hqkFJTAHNMWA0aOxIDGWfhv+kws2ZaKAmMDdB9xLW694SL0bWqDM3snls/4AZ9/9xfW7M1GkdMDQ3AUEnuegyuvvQLn9GyKUBQiZe1s/PjNT/hr8SakFRsR3qwHesWlY+FGC4bdcQ9uu/AURBUkY9WsH/HtT3/hv80iLrcJITEt0OecUbjioqHo0pQTAosX6s3HP0+NwiPr++KRJ27GsI4NcFSTjVUSVWd5ElIiLMPs3FxZ/D7QAKOJ5pGcrH/z868X3+W+z9FfuUixOg7ueMXrx8FHNYjXhbycVGzamY7IVm2RcKSeS55cJO9cjy0ZCbj4wRfxwsOj0S90M3589Rm8+v0mhA25GY88cjvObVuMpdN/xq/zd8Epwk9bMxs/f/UjNlm64pK7Hsezzz6CW4Y3Q96CnzD5l7nYUuiFI2UZfv7gPXwzLwONzxiDu++7Fee1zMayuXOxemeB9s14i7B73hd4861v8V9BC5x1wwN47MFbMLJNMeZ++Aom/bQQO7J9E/0aQtCqTQKMSVuxNTMXhTVUcanEUlH96FYdtzXqtGjLv1a9Tvyr7ftvaxqvHYXCWtuXbkZsfKODVkI9FFEEb3EKLrz5ftxy6Qicd+nFuOi8PmgalYhuZ16P+26+BCMvugKXnDcMHULykJWRiSIhlm5bfbQcPBr3jLsbt10+AmecPhwXnjsUfdrYkC9KH1n5TuxdPBvz1hWh/cW3Yty9N+OqUf/DnQ/fi6vP7I76Jm2ElbdoM2ZP/xdbjb1w1e1jcctV5+GskVfgzkfG4fJTvFgxYy7WC9HXejqZUL9xI4QWp2FveiGKqnuicR9KLBWKExYXXM48FBSZEBYeemQL12BFZFQjJIiirqyFDg5GcFg46sfGonHzRG3dHrmuTghCbQZh4VG1QtC0y2BccMFA1Mtbiz9+/h6Tv/0KX/40E0u3+ITNk4OdO/Yg1dQU7Vu3KJ0I2BjZDh3bt0STWM3c9ezbjE170pDvzMLGBX/gm08+xscff4xPflqOpLxiFCbvRFJOrhBo6R2m0HCEmLkmkANOl3auulFiqVCcsFCYtOVWWFVyRLGU/g5dxIsNeCZT+eV3rzsfSatn4quJL2HCq+/gs8m/YfbSzUh3mGANC9UWHxTWJ0d1lcACs9nsJzhmOQTUrDfaOOxymGxe6hasWvwvZs+e7XPzsNvUHN17dkFCTGjpGlriDuGMMIgEH/m5qg4llgrFiYrBoi05EVaC3Jw8ba2aKsSbvw2L/5iMn/4rRq8xz+O9z77EZx+8iadvuxD9W2oWKgyhqFcvCmElmdgviu45vpUavc50pKRmIKdAK4YbI+uhXkQM2g8Zg0ff+gY/TZmKqVOnYsqPn+KNpx7CfXddjoFtGiFMBuqFMzcXBZ4wREUGC9GVQVQ7SiwVihMWK0LD49GkgQFZyftQ4CvCVhnCGiwutAOh0YiOsqEkPw17tqzGggVLsGZbCvIK84QzoVnn7ugYk4O1C2bj7yUbsG37FqxZMANzlm1ESoG0aWFs0BE9OjdFyZZ5mDVzNpZv3IadO7dg7fyf8NbTT+Dlb+Zje4Zda+ARsp+2LwXFIY3QrH4YQmuon6USS4XiRMVgRnhUQ7Rr1QBF2zZgh71q1dIQ1RRtuvVAomcb/vzkdUx67wN8+OHHmLxgG7IRDOeOpVi8aC2crYbhwgsHIWbPP/jy1Ql45fU3MPHz+diW5YI1KggmUdQ3BiViwHkXYVjrfCz+fhJeeOFlvP76q3jxlW+wvDgBg4b0QPOG4ZpgefKwacMeGBPbopWwWg+3xE9Vo8RSoThhMcAa3QCtT+mGhtlrsGynZpkZbNFo3LEvTuvXQa6GagiORKP2fXBa/85opK2CJjyFIDahC/oN6oW2DeQC/wIjwhu2Ro/+/dGtRT0EWZvglLNGY+wdF6NztAP7k9PgiOmO829+GE89djvO7VwPhvx0ZNvD0GbQRRhz3UXo1ywY9iIjmg4cgeEDT0FCvXCE2awINpgQ0/U83DTuQdx+YS80NhcgI8eN2B4X484nxuN/Q9qjgS9tnrxNWL4VaN2jGxLqRxz1IoWVRXVKPwnZumsXbhg/3ncUOPqnwski2Cndnp8Po6/yn30u2Sk9vk1nhEXVE8d+ndJb9PB1SvdVxldjV5rSz1lE4Um3+zqlM8oayFF+ndIbbv1VPDsHXh9oWDkewx3hdSB942x88do7WN/9GUy8tZuv3q+m8CJv8z/47c+VyG/aF0OFhZgYboA9fSUmv/QivkzphrH334oLezTwa7w5Em5kzn0Nt76RiuH33o5L+jVHZA0txqMsy5MU/xl6AnbsdC6d37G8pp0X/2hO2i+KWoEhCNFNOmLA0J7AyulYuM9R43+doGADCpKW4tfP38Okt97DRx99gHdefw/TNxvRa+hgdBFWamBCKb6swp2Y8+8O1B80BH1bN0J4DQklUWJ5EkIryxQUXGlntghXug2SziSdRZyzwGRWs4HXPgwwhzdC235nYWQnN7bvrPpW8SNjgLVZX5z/v+sxqm99FG6ajxl//YMV+8PR9YIbcO3IXmgRpU04UjFeuDK3I8XWA+cNPQWJsdYaFTBVDD8J2ZG8D3e/PNF3VBn4qRjgdrtQkJkml2woHRsuPqMgawiiGibAGhoujkWWFN5VMfw4F8N9eF1FyMtMRXJxFNo0j0Gg8lSVeN0OFOblIq/Yg+DwKESEWmGplNp5RfF9J/YWh6JhXCzCfJN01BTKsjwJMRhNCA4Jr7QLCokQTj8OFfshYnvAWazil97EuRxlLPJfRe3AYAlBZMMW6HCchJIYTMEIi45DfHxD1AuvrFASYaXWb4HWCQ0QXsNCSZRYnowI60vWO1bSwee0+krfvgzLr85SoH3EPgtPoThBUGJ5ksJiaWWd705tXx77XZeXtHMa+lZxsrJmzRpMmzYNycnJvjN1GyWWCoWiWqBQPvXUU1i37ngtqVG1KLFUKBSKAFBiqVAoFAGgxFKhUCgCQInlSYp/K3agznen2OdG/nPgunZJ/0ehOOFQYnmyordoV9oZxebQ89o5LWgll4oTESWWJyPCEixx2I/CFcNF5ywW+w7hnL6tQ5wXW6dLjhP3aaZCcUKhxPIkhMMV8zP3VdrlZYitdCniOF1sM+T64XTcL8rNkWuKSytT2ZeKEwwllichHIHjshdV3jnoCn3HtDKFRWm3l7oSp0OGrVCciCixPEnhBBiVdrK+0v/YcNB1ccJXb6kK4ooTDyWWiipGF0yF4sSizk7Rlp2djfHjxyM+Pt53RREou/ftw+OTJvmOAkf/VCqcKT26nvCjZkovb4q2Xbt2+Y5OfN5++238+++/ePbZZzF8+HDf2bpLnRTL559/HvPmzUPPnj0RGhrqu6IIFKf4kye7Kr8yvRLLCqhALGd98QVuuOEG39GJDyfSIC+++CLOPPNMuV+XqXPF8MjISAwYMACDBw9WQqlQ1GK6dOmCkSNHnjClvzpnWbqERZQvLJqioiLfGUVlYTF8/Btv+I4CR1mWFRBAMTwpKcl3dHJgsVikgWO18l3UbeqcWCqOnWpf3VGJZa1bVkJx7KjWcIVCoQgAJZYKhUIRAEosFQqFIgCUWCoUCkUAKLFUKBSKAFBiqVAoFAGgxFKhUCgCQImloupgF0f2c5RbeUZD9n3ked15qtHp4fviLI23rL9qcuDWt8yG+Jd9LFVX5hMDJZaKauCAWEjhMBjhMZrhMZnElk7sV5s7XPiWGnN8XgMfnW9ACeUJgxrBcxJS5SN4xGmPxw1reCTi23RCqBzB45ZWFcUrNaETUhK6Cm++ETzVDNNpMBpQkl4Ed65dU62aiNjjgdsSgtjd/6L+rlnixyFYRKst6MYRRGoET91GieVJSLWJZVgEGgmxDIuOFSVSN8cYSoF02MKFi6gRwdKSqMlyUVYm7Hm5+skawWswIag4U7h08fjaUFC+N5PRiH++/loeK+omSixPQqplbLjbA4vNhoYt2iGqYRMpngfGYwvxqqGvTFYAMC4Rd0H2fhTlZYlj1iXWiE0rnIhH/s9/tDg5i3yj+vXx7euvy2NF3UTVWSqOHSGi1AW304nCnEyUuJzi2FgqrpQOrxCMGnGMV9/SspVb8ZmLc+U7IfYH7R+rE+EwPp9QGsUxxfLcoUPlsaLuIv6qCkUVIMSB1mRBVgZy01LECa8UilIonH6OUmIU91TWSQkqE1a5Trcwy7umOwErCrhPK9goAj82VyadAqPJjIGn9MDwAQN8ZxR1FSWWimNHiIO2Mch1xTOTdiBj7w44irU5R/UFzSieB5xJCEnlnUHcpy2cJgRJbst3Rul8wnU4J1OnpVs6XzqrwokAERMVhbMGDcR1l1yM6IgIX2yKuoqqszwJqY46ywOfEbcGmCxBssHHGhoGkzmIp+R5oSFSwDq0a4e+PXsiKMjCC/JaIKzbskU6h8MpYtKsQn/0dFD88rPSUZyfCy7Py+PykOfFPQP79UPb1q1hMZsP67cyBAcHIzE+Hs0aN0Z8XJw8VxXhKo4fSixPQqpDLMlBnxL3hThIS0sXCR6LjUlYhxedOxK3jrkOQcFCSHkpQLGc+vdMTJkxA7kFBVIEy36++jHjZBqL8/LkucMJlX7+gTvuwBmnnQabzRZgSo6MSbyXUBEWn1m3bhV1G1UMV1QhfoLgEwd2IfKUlGjO5YKbrsQlP7xQazAiQkKkCw+xBeSCheVHIfYKwWbYUjDLdQeusf/jwdcOdUEWC8JDQxERFoaI8PBjdmHimWR1gxLKEwYllopjwt+yoyb4CwP3ZR2iX12e7niX56B7NVGpyPk8+/YPva47/2vin9L9sk4LzlBqfco7xVav7zxa5x+24sRAiaUiIEpFUaqJ7jQh8BdMIkUnAJHQ/VXGiX98d1cxDF9u/LZV4BQnDkosFRXiL4ZetxcldjfcxaJY7dQWJZPnywimQnGiocRSETDUQ2u0BU0GxKLpWYmI7BAHg0kUYT26YmobheJERIml4sj4WY4hsRa0GtkQbS5qjCZnN0fCxZ0Q27ux5kGhOMFRYqmoGCGYnMUnqmUo6neJgNlmginYCGvDMMR0a4TgaBs8JR7hyedfoTgBUWKpODI+AWRbhSXUDLPVKIWRdZfEHBYEk03rzlNV0Ir1eDya476fq8p4/GH3IT0OGT+dOOf2nVd1sgollooj49MITtxTuN8BZ16JFE1jEIceGlGcVgBnjh0GU9V+SqUtytz3d/xHJMYjnJdb9uM8yGnntGv0I4ROnjvU6QLIfY7c4TRqdKXxiq3sBiR9UaeVYJ7MqBE8JyGVGsEjvg5tWCFgElZlXOcIxPWKRr7Di5S1GUifvwtFyXla/0nKiq4sR4CjWy47/3zcc+utCA0Jkef8u9nsTUvH6q07kZGTK4VMRi4xyLRv2bWzdLjjIV8vxVFsGF6BHO6YI8XSP/xSdCEU9/Tu0QOJCQlSNHXYqZwdzE8V15rFx8PsG61UbliKEx4llichlR3u6P+JsPXbGAwU5eeiYH8OPE6KmcaxiKXOlr3J+PO/Fdi4J0kKItG1ialwiXMOpxBKPU1lvl5d2KVY+uazpJVZbrJKA/bCarPBYrEcJISMg+caxcbirmuuQevExIM6nCtOLlQx/CSFQqC7gKEOub2iKO6CPdMOt73Ed8FHJTSkvLhdJSXYsHM3Vm3ehpzcPBQVFUlXWKi5IuGcLpe4j759kXHj74j/vg4FrqyTp7V9pxBgGV9h4QEnjgvy87Ftzx4sWbNG+lH1lycvSixPQigQtO50x+MjudJp1Uz61nTgnJ8r796yTvoVWz1uHV5jd81iYTnanQ5ZdJaqWI4rb/7IUucLX07R5pe2wzk9TRIRtoih1OmwKiBfiKdWJaA4WVFieRLCSR56delSOmOQFDIKRwVOqIp09C/+0QTFtx+IkyIkto0bN5bToQUH+WYc4jUhVEFmExIa1EfjBnEwiuKvjI9pNJlLncEsispHcJxsV+5zy7kvhcAbRBjlPU9ZJ+Mrk16P2JrNZnRo1QpBIr3iiuIkRdVZnoSwuLtj7178Nns2Nu/YAbfbLYuXEgrF4fD54RRtRbm5cAprS4pMgNBvXGwshg0ejDOEi4qM1M5TmHxhF9rtWLF5Oxat24SMnByt1Zp+5NUApEqEI/0Lr4W5mbAX5PKkdqIS0DfTFR4WhiG9+2Bwn96IFPvyh8J3TXFyocTyJIR/copjUXGxrAPURTBQ6JvFZIZTWclg0TvEZpOT45YnOAzTVeIWRXGn7ONY2bT5w+5FQm39xLbysIhus9oQZDkwKbASypMR4P9G4G+aJtDWmAAAAABJRU5ErkJggg==;" vertex="1" parent="1">
          <mxGeometry x="-400" y="217" width="304.83" height="233" as="geometry" />
        </mxCell>
        <mxCell id="9iCOq9ahbUTK9QBbnLyf-26" style="edgeStyle=orthogonalEdgeStyle;rounded=0;orthogonalLoop=1;jettySize=auto;html=1;exitX=0.5;exitY=0;exitDx=0;exitDy=0;entryX=0.85;entryY=0;entryDx=0;entryDy=0;entryPerimeter=0;" edge="1" parent="1" source="9iCOq9ahbUTK9QBbnLyf-7" target="9iCOq9ahbUTK9QBbnLyf-25">
          <mxGeometry relative="1" as="geometry">
            <Array as="points">
              <mxPoint x="660" y="110" />
              <mxPoint x="-141" y="110" />
            </Array>
          </mxGeometry>
        </mxCell>
      </root>
    </mxGraphModel>
  </diagram>
</mxfile>
